<svg viewBox="0 0 552 361.5" xmlns="http://www.w3.org/2000/svg"><path d="m518.65 2.5-68.91 68.15" fill="#ef56ac" stroke="#ef56ac" stroke-linecap="round" stroke-miterlimit="10" stroke-width="5"/><path d="m194.81 30.87 94.96 78.19" fill="#ef56ac" stroke="#ef56ac" stroke-linecap="round" stroke-miterlimit="10" stroke-width="5"/><g opacity=".2"><path d="m162.76 301.46c-21.48 0-39.37-17.48-39.88-38.97-.43-18.26 11.54-33.99 28.2-39.1-.06-.87-.09-1.75-.09-2.64v-.12c.26-21.46 17.92-38.92 39.38-38.92h.42c3.59 0 7.12.48 10.53 1.41 7.82-14.57 23.26-24.27 40.33-24.27 3.28 0 6.58.36 9.81 1.06 13.26 2.9 24.37 11.55 30.6 23.2 3.4-.93 6.94-1.4 10.52-1.4h.42c21.46 0 39.12 17.46 39.38 38.92v.13c0 .88-.03 1.76-.09 2.63 15.93 4.97 27.77 19.76 28.18 37.19.52 22-16.95 40.32-38.95 40.84-.33 0-.64.01-.94.01-.27 0-.54 0-.8 0-18.98-.03-28.74-8.5-38.18-16.7-1.86-1.61-3.78-3.28-5.81-4.92-9.65-7.91-21.76-12.28-34.16-12.34-11.73 0-23.44 3.87-32.92 10.9-2.92 2.18-5.59 4.53-8.17 6.81-8.64 7.61-18.42 16.24-36.96 16.28-.28 0-.55 0-.83 0z"/><path d="m31.32 361.5c-.29 0-.58 0-.87-.01-8.18-.23-15.78-3.64-21.4-9.59s-8.58-13.73-8.35-21.91c.36-12.72 8.26-23.34 19.38-27.67.45-16.28 13.93-29.45 30.26-29.45h.24c1.91 0 3.79.18 5.63.52 4.87-7.72 12.71-13.37 21.9-15.38 2.44-.53 4.94-.8 7.42-.8 12.05 0 23.03 6.38 29.26 16.19 1.84-.34 3.72-.51 5.61-.51h.28c16.34 0 29.83 13.18 30.26 29.48 4.13 1.63 7.88 4.15 11.01 7.47 5.62 5.95 8.58 13.73 8.35 21.91-.48 16.69-13.92 29.77-30.61 29.77-.24 0-.49 0-.73 0-13.91-.04-21.1-6.38-27.46-11.98-1.8-1.58-3.49-3.08-5.4-4.5-5.98-4.43-13.12-6.79-20.6-6.79-7.71.04-15.29 2.77-21.28 7.69-1.39 1.13-2.68 2.24-3.92 3.33-6.6 5.73-14.08 12.22-28.28 12.26-.24 0-.48 0-.72 0z"/><path d="m369.11 356.74c-1.06 0-2.1-.12-3.1-.34-1.13.23-2.26.34-3.36.34h-14.66c-5.07 0-9.61-2.44-12.45-6.69-3.65-5.47-4.05-13.38-1.04-20.65 1.52-3.68 3.48-6.34 5.41-8.25-.32-4-.98-9.22-1.71-15.04-1.6-12.67-3.59-28.44-3.59-43.75 0-10.17 1.98-20.48 5.74-29.96.02-1.41.05-2.81.08-4.22.02-1.13.05-2.25.07-3.38.12-6.84-4.49-22.44-12.09-40.95-6.51-7.42-10.35-17.09-10.35-26.29 0-12.67 3.5-24.65 9.6-32.86 1.23-1.65 2.79-3.38 4.62-5.11-.27-7.74-.92-17.12-1.23-21.33-.25-3.33.91-6.64 3.17-9.07 2.23-2.41 5.39-3.79 8.65-3.79 1.75 0 3.52.4 5.11 1.17 6.36 3.06 15.12 9.66 21.73 15.52 1.85-.19 3.68-.29 5.49-.29 4.03 0 8.03.34 11.94 1.02 5.7-5.49 15.7-13.98 25.23-16.38.97-.24 1.97-.37 2.97-.37 4.08 0 7.92 2.06 10.29 5.51 3.66 5.34 8.51 18.1 7.82 29.77-.32 5.42-1.59 9.86-3.1 13.33 3.06 7.47 3.86 15.5 2.39 23.96.15 5.22.49 9.47.83 12.61 5.98 2.1 14.45 6.35 23.27 14.88 12.91 12.48 22.81 30.4 29.47 53.29 11.36 7.61 18.85 26.6 18.85 42.13 0 9.22-.89 18-2.65 26.22 7.17 2.56 14.38 4.32 17.8 5.09 4.63 1.05 9.78 2.35 15.3 3.87 9.24 2.56 15.7 11.05 15.7 20.65 0 5.15-2 9.99-5.64 13.63s-8.47 5.65-13.61 5.65c0 0-.31 0-.47 0-15.53-.37-36.7-1.95-51.17-7.23-5.53 4.75-11.34 7.31-16.81 7.31-1.12 0-2.24-.13-3.34-.38-1.15.25-2.32.38-3.5.38h-33.71c-1.81 0-3.54-.16-5.13-.46-2.68-.4-5.31-1.06-7.86-1.97-4.7 2.43-9.78 2.43-12.8 2.43h-28.15z"/></g><path d="m162.76 292.97c-21.86 0-40.06-17.79-40.57-39.65-.43-18.39 11.49-34.25 28.17-39.62-.04-.71-.06-1.42-.06-2.14v-.13c.26-21.84 18.24-39.61 40.08-39.61h.42c3.46 0 6.88.44 10.18 1.29 8.02-14.52 23.54-24.15 40.67-24.15 3.33 0 6.68.36 9.95 1.08 13.28 2.9 24.43 11.48 30.8 23.06 3.3-.85 6.71-1.28 10.17-1.28h.42c21.83 0 39.81 17.77 40.08 39.61v.14c0 .71-.02 1.43-.06 2.14 15.94 5.21 27.74 20.13 28.15 37.67.53 22.38-17.25 41.02-39.63 41.55-.34 0-.65 0-.96 0-.27 0-.54 0-.81 0-19.23-.03-29.09-8.59-38.63-16.87-1.85-1.61-3.77-3.27-5.79-4.91-9.53-7.81-21.49-12.12-33.73-12.19-11.58 0-23.15 3.82-32.5 10.76-2.89 2.16-5.55 4.5-8.13 6.77-8.73 7.69-18.62 16.41-37.41 16.45-.28 0-.56 0-.84 0z" fill="#fff"/><path d="m31.32 353.01c-.29 0-.59 0-.89-.01-8.37-.24-16.14-3.72-21.89-9.8-5.73-6.09-8.77-14.05-8.53-22.41.37-12.85 8.24-23.6 19.39-28.13.7-16.44 14.39-29.66 30.94-29.66h.24c1.79 0 3.56.15 5.3.45 4.99-7.67 12.87-13.28 22.09-15.3 2.49-.54 5.03-.82 7.57-.82 12.13 0 23.19 6.34 29.59 16.12 1.73-.29 3.5-.44 5.28-.44h.28c16.57 0 30.26 13.24 30.94 29.7 4.05 1.67 7.74 4.19 10.84 7.47 5.75 6.09 8.78 14.04 8.54 22.41-.49 17.07-14.24 30.44-31.3 30.44-.24 0-.49 0-.74 0-14.17-.05-21.78-6.76-27.9-12.16-1.79-1.57-3.47-3.06-5.36-4.47-5.86-4.34-12.85-6.65-20.19-6.65-7.55.04-14.97 2.71-20.84 7.53-1.38 1.12-2.67 2.24-3.91 3.31-6.69 5.81-14.27 12.39-28.72 12.43-.24 0-.48 0-.72 0z" fill="#fff"/><path d="m369.11 348.25c-1.06 0-2.1-.11-3.11-.33-1.13.22-2.25.33-3.35.33h-14.66c-5.31 0-10.06-2.55-13.03-7-3.78-5.66-4.21-13.82-1.11-21.3 1.5-3.63 3.42-6.3 5.33-8.25-.32-3.94-.97-9.03-1.68-14.69-1.6-12.69-3.6-28.48-3.6-43.83 0-10.22 1.98-20.57 5.74-30.1.02-1.37.05-2.73.08-4.1.02-1.13.05-2.25.07-3.38.11-6.64-4.57-22.44-11.99-40.57-6.57-7.53-10.44-17.34-10.44-26.66 0-12.82 3.55-24.95 9.74-33.27 1.2-1.61 2.71-3.29 4.47-4.98-.27-7.67-.92-16.85-1.22-20.99-.26-3.53.96-7.02 3.35-9.6 2.37-2.55 5.71-4.01 9.16-4.01 1.86 0 3.73.43 5.41 1.24 6.34 3.05 15.03 9.58 21.66 15.42 1.77-.17 3.52-.26 5.26-.26 3.95 0 7.87.33 11.71.97 5.79-5.55 15.75-13.91 25.29-16.31 1.03-.26 2.09-.39 3.14-.39 4.31 0 8.37 2.17 10.87 5.82 3.72 5.42 8.64 18.37 7.94 30.21-.32 5.38-1.55 9.8-3.04 13.3 3.01 7.49 3.79 15.54 2.34 24 .14 4.94.46 8.99.78 12.05 6.02 2.18 14.4 6.47 23.11 14.89 12.94 12.51 22.87 30.41 29.55 53.26 5.92 3.95 10.03 10.4 12.62 15.79 4.04 8.37 6.35 18.16 6.35 26.87s-.85 17.67-2.54 25.77c6.94 2.44 13.83 4.12 17.14 4.86 4.65 1.05 9.8 2.35 15.33 3.88 9.54 2.64 16.21 11.4 16.21 21.32 0 5.33-2.08 10.35-5.84 14.12-3.77 3.77-8.78 5.85-14.1 5.85 0 0-.32 0-.49 0-15.45-.37-36.46-1.93-51.01-7.14-5.57 4.69-11.42 7.21-16.95 7.21-1.12 0-2.24-.12-3.35-.36-1.15.24-2.32.36-3.5.36h-33.71c-1.85 0-3.61-.16-5.25-.47-2.62-.39-5.19-1.03-7.68-1.89-4.76 2.37-9.83 2.37-12.86 2.37h-28.15z" fill="#fff"/><g fill="#ef56ac"><path d="m162.76 289.5c-19.99 0-36.63-16.26-37.1-36.26-.42-17.78 11.79-32.97 28.41-36.98-.2-1.55-.31-3.11-.3-4.69.24-20.04 16.66-36.26 36.6-36.26h.35c4.15 0 8.2.67 12.03 1.97 6.96-14.81 22.09-24.83 38.9-24.83 3.08 0 6.18.34 9.21 1 13.22 2.89 24.16 11.86 29.76 23.82 3.82-1.3 7.85-1.96 11.95-1.96h.42c19.94 0 36.36 16.23 36.61 36.18 0 1.62-.1 3.21-.31 4.77 15.9 3.9 28 18.21 28.4 35.21.48 20.47-15.77 37.51-36.24 38-.31 0-.59 0-.88 0-.26 0-.52 0-.77 0-17.96-.02-26.91-7.79-36.39-16.02-1.88-1.63-3.81-3.31-5.88-4.98-10.12-8.3-22.86-12.89-35.9-12.96-12.34 0-24.64 4.07-34.59 11.44-3.01 2.25-5.73 4.64-8.35 6.96-8.68 7.65-17.65 15.56-35.15 15.58-.27 0-.53 0-.8 0z"/><path d="m31.33 349.54c-.26 0-.53 0-.79-.01-7.44-.21-14.35-3.31-19.46-8.72s-7.81-12.49-7.59-19.92c.35-12.23 8.36-22.33 19.4-25.79-.02-.45-.03-.91-.03-1.37.18-15.07 12.51-27.26 27.49-27.26h.23c2.39 0 4.74.3 7.01.88 4.37-7.94 12.02-13.82 21.13-15.81 2.25-.49 4.54-.74 6.82-.74 11.75 0 22.39 6.6 27.9 16.55 2.26-.58 4.6-.88 6.97-.88h.28c14.98 0 27.31 12.19 27.49 27.18 0 .49-.01.99-.03 1.47 4.46 1.41 8.5 3.94 11.79 7.43 5.11 5.41 7.81 12.49 7.59 19.92-.43 15.18-12.66 27.06-27.83 27.06-.23 0-.46 0-.69 0-12.88-.03-19.67-6.01-25.65-11.29-1.76-1.55-3.58-3.15-5.57-4.65-6.47-4.79-14.18-7.34-22.27-7.34-8.36.04-16.56 3-23.04 8.32-1.41 1.14-2.72 2.28-3.98 3.38-6.54 5.68-13.31 11.55-26.49 11.58-.23 0-.45 0-.68 0z"/><path d="m369.11 344.78c-1.05 0-2.07-.14-3.05-.42-1.15.28-2.3.42-3.41.42h-14.66c-4.13 0-7.82-1.99-10.14-5.45-3.14-4.71-3.45-11.62-.79-18.04 1.61-3.89 3.74-6.48 5.71-8.18-.27-4.23-1-10.01-1.82-16.52-1.59-12.59-3.57-28.27-3.57-43.4 0-12.37 2.99-22.61 5.73-29.4.02-1.57.05-3.14.09-4.72.02-1.13.05-2.26.07-3.4.12-7.25-4.64-23.45-12.47-42.48-9.22-10.21-9.96-21.5-9.96-24.81 0-11.91 3.38-23.57 9.05-31.2 1.31-1.76 3.1-3.68 5.21-5.58-.24-8.02-.95-18.26-1.28-22.72-.19-2.56.7-5.11 2.43-6.98 1.71-1.84 4.12-2.9 6.62-2.9 1.34 0 2.69.31 3.9.89 5.75 2.77 14.73 9.31 22.02 15.92 2.16-.27 4.3-.41 6.4-.41 4.35 0 8.65.41 12.84 1.23 7.06-7 16.82-14.61 25.01-16.67.75-.19 1.52-.28 2.29-.28 3.16 0 6.15 1.61 8 4.31 3.44 5.01 7.99 17.02 7.34 28.04-.33 5.64-1.75 10.1-3.37 13.46 3.27 7.37 4.16 15.35 2.64 23.79.17 6.5.65 11.56 1.06 14.9 5.7 1.77 14.56 5.77 23.9 14.8 12.74 12.32 22.49 30.15 29.01 53.04 4.74 2.8 9.05 7.97 12.45 15.02 3.82 7.92 6.01 17.16 6.01 25.36 0 9.91-1.05 19.29-3.12 27.98 8.05 3.08 16.6 5.17 20.43 6.04 4.59 1.04 9.69 2.33 15.17 3.84 8.05 2.22 13.66 9.61 13.66 17.97 0 4.41-1.71 8.55-4.83 11.67-3.11 3.11-7.25 4.83-11.65 4.83h-.4c-15.9-.38-37.75-2.02-51.84-7.66-5.37 4.97-11.1 7.73-16.21 7.73-1.14 0-2.26-.15-3.35-.46-1.14.31-2.31.46-3.5.46h-33.71c-1.66 0-3.22-.14-4.66-.42-2.94-.44-5.81-1.2-8.58-2.29-4.34 2.71-9.39 2.71-12.55 2.71h-28.15z"/><path d="m162.76 290.33c-19.61 0-35.94-15.96-36.4-35.58-.42-17.66 11.87-32.73 28.5-36.43-.26-1.72-.39-3.47-.39-5.23.24-19.65 16.34-35.57 35.91-35.57h.42c4.24 0 8.4.73 12.32 2.14 6.72-14.88 21.78-25 38.53-25 3.03 0 6.08.33 9.06.98 13.21 2.89 24.12 11.95 29.54 24.01 3.93-1.41 8.08-2.13 12.32-2.13h.42c19.56 0 35.67 15.92 35.91 35.49 0 1.8-.13 3.56-.39 5.3 15.91 3.6 28.09 17.79 28.48 34.69.47 20.08-15.48 36.81-35.56 37.29-.3 0-.58 0-.86 0-.26 0-.51 0-.77 0-17.7-.02-26.56-7.71-35.94-15.85-1.88-1.63-3.82-3.32-5.9-5-10.24-8.4-23.13-13.05-36.33-13.11-12.49 0-24.94 4.11-35 11.58-3.04 2.27-5.76 4.67-8.4 7-8.58 7.56-17.45 15.39-34.7 15.41-.26 0-.53 0-.79 0z"/><path d="m31.33 350.37c-.26 0-.51 0-.77-.01-7.25-.21-13.99-3.22-18.97-8.5-4.98-5.27-7.61-12.17-7.4-19.43.35-12.12 8.4-22.09 19.43-25.3-.04-.62-.06-1.25-.06-1.88.18-14.69 12.2-26.57 26.8-26.57h.31c2.48 0 4.93.34 7.28 1 4.23-8.01 11.84-13.96 20.92-15.95 2.2-.48 4.44-.72 6.68-.72 11.68 0 22.24 6.67 27.55 16.67 2.37-.66 4.83-1 7.32-1h.28c14.6 0 26.62 11.88 26.8 26.49 0 .66-.02 1.32-.07 1.97 4.55 1.34 8.68 3.86 12.02 7.4 4.98 5.27 7.61 12.17 7.4 19.43-.42 14.8-12.34 26.39-27.13 26.39-.23 0-.45 0-.68 0-12.63-.03-19.02-5.67-25.21-11.12-1.77-1.56-3.6-3.17-5.62-4.68-6.6-4.89-14.45-7.48-22.68-7.48-8.53.04-16.88 3.05-23.48 8.48-1.42 1.15-2.73 2.29-4 3.39-6.45 5.6-13.11 11.38-26.05 11.41-.22 0-.45 0-.67 0z"/><path d="m369.11 345.62c-1.05 0-2.07-.15-3.04-.44-1.16.29-2.31.44-3.42.44h-14.66c-3.89 0-7.38-1.88-9.56-5.14-2.97-4.45-3.26-11.27-.72-17.39 1.63-3.95 3.81-6.51 5.78-8.14-.25-4.29-1-10.21-1.84-16.91-1.59-12.57-3.56-28.22-3.56-43.31 0-12.33 3-22.53 5.73-29.26.02-1.61.06-3.23.09-4.84.02-1.13.05-2.27.07-3.4.13-7.47-4.56-23.44-12.57-42.87-9.13-10.05-9.86-21.17-9.86-24.43 0-11.77 3.33-23.27 8.91-30.79 1.33-1.79 3.18-3.75 5.36-5.69-.23-8.08-.96-18.55-1.29-23.08-.18-2.37.64-4.72 2.25-6.45 1.58-1.7 3.81-2.68 6.11-2.68 1.24 0 2.48.29 3.6.83 5.76 2.78 14.81 9.38 22.09 16.02 2.23-.3 4.45-.45 6.63-.45 4.43 0 8.8.43 13.07 1.29 7.01-7 16.8-14.7 24.95-16.76.7-.17 1.41-.26 2.12-.26 2.93 0 5.71 1.5 7.43 4.01 3.29 4.79 7.85 16.87 7.22 27.6-.34 5.7-1.8 10.17-3.44 13.49 3.33 7.34 4.24 15.31 2.72 23.75.18 6.86.7 12.13 1.12 15.48 5.6 1.67 14.57 5.6 24.05 14.77 12.71 12.28 22.42 30.11 28.91 53.02 10.74 6.24 18.35 24.85 18.35 39.9 0 10.08-1.09 19.61-3.25 28.41 8.25 3.22 17.15 5.4 21.1 6.29 4.58 1.03 9.67 2.32 15.13 3.83 7.74 2.14 13.15 9.25 13.15 17.3 0 4.22-1.64 8.19-4.62 11.17s-6.94 4.63-11.15 4.63h-.39c-15.94-.38-37.87-2.03-51.85-7.71-.05-.02-.1-.04-.16-.06-5.33 5.04-11.02 7.85-16.06 7.85-1.14 0-2.25-.16-3.34-.49-1.15.32-2.32.49-3.5.49h-33.71c-1.62 0-3.15-.14-4.55-.41-3.02-.45-5.96-1.24-8.78-2.39-4.26 2.8-9.32 2.8-12.46 2.8h-28.15z"/></g><g opacity=".1"><path d="m164.19 289.68c-16.7 0-30.6-13.59-30.99-30.29-.4-16.93 12.91-31.06 29.78-31.73-1.11-3.15-1.67-6.44-1.67-9.8.2-16.64 13.88-30.15 30.49-30.15h.36c5.48 0 10.77 1.4 15.46 4.07 4.42-15.73 19-26.93 35.46-26.93 2.64 0 5.3.29 7.91.86 13.33 2.91 23.97 13.03 27.62 26.07 4.68-2.67 9.96-4.07 15.4-4.07h.42c16.61 0 30.29 13.52 30.49 30.14 0 3.37-.56 6.65-1.66 9.79 16.14.65 29.37 13.97 29.76 30.26.4 17.1-13.18 31.34-30.27 31.74-.25 0-.49 0-.73 0s-.49 0-.73 0c-15.7 0-23.45-6.73-32.43-14.52-1.91-1.66-3.89-3.38-6.04-5.12-11.17-9.16-25.28-14.25-39.71-14.32-13.68 0-27.27 4.49-38.26 12.65-3.23 2.41-6.04 4.89-8.76 7.28-8.56 7.54-15.94 14.06-31.2 14.06-.21 0-.46 0-.71 0z"/><path d="m32.13 349.71c-5.8-.17-11.2-2.58-15.18-6.8-3.99-4.22-6.09-9.74-5.93-15.55.32-11.38 9.14-20.39 20.32-21.08-.64-2.02-.96-4.11-.95-6.24.14-11.67 9.73-21.16 21.38-21.16h.25c3.63 0 7.15.88 10.3 2.56 2.7-8.83 10.01-15.65 19.13-17.64 1.82-.4 3.67-.6 5.52-.6 11.3 0 21.33 7.55 24.6 18.24 3.15-1.68 6.66-2.56 10.26-2.56h.28c11.65 0 21.24 9.48 21.38 21.14 0 2.15-.31 4.24-.95 6.26 5.5.36 10.58 2.74 14.38 6.77 3.99 4.22 6.09 9.75 5.93 15.55-.34 11.85-9.88 21.13-21.72 21.13-.21 0-.42 0-.63 0-10.6 0-15.98-4.74-21.68-9.76-1.85-1.63-3.76-3.32-5.96-4.96-7.55-5.6-16.52-8.56-25.92-8.56-9.79.05-19.35 3.5-26.92 9.71-1.46 1.19-2.81 2.35-4.11 3.49-6.23 5.41-11.62 10.08-22.59 10.08-.16 0-.37 0-.58 0s-.41 0-.62 0z"/><path d="m370.53 344.96c-1.02 0-1.95-.28-2.75-.83-1.27.54-2.56.83-3.7.83h-14.66c-2.08 0-3.88-.97-5.06-2.73-1.96-2.94-2.05-7.88-.22-12.3 1.68-4.07 4-6.08 5.65-7.05.4-.24.63-.63.63-1.06-.07-4.63-.95-11.61-1.97-19.7-1.57-12.42-3.52-27.88-3.52-42.63 0-12.06 3.08-21.92 5.72-28.16.02-1.94.06-3.88.1-5.83.03-1.14.05-2.28.07-3.43.2-11.89-9.18-35.88-13.35-45.94-6.69-6.98-9.08-15.64-9.08-21.45 0-10.64 2.93-20.94 7.84-27.55 1.47-1.98 3.76-4.26 6.48-6.46-.12-8.43-.99-20.87-1.36-25.93-.06-.88.23-1.74.82-2.36.56-.6 1.34-.95 2.14-.95.43 0 .85.1 1.25.29 5.76 2.77 15.59 10.12 22.68 16.91 2.83-.53 5.66-.8 8.4-.8 5.06 0 10.05.61 14.84 1.83 6.99-7.46 17.08-15.59 24.5-17.46.26-.07.53-.1.8-.1 1.15 0 2.25.62 2.96 1.65 2.98 4.33 6.81 15.16 6.28 24.21-.38 6.35-2.36 10.84-4.16 13.67 3.96 7.21 5.07 14.88 3.41 23.45.22 9.29 1.04 15.89 1.51 19.01.12.77.67 1.38 1.42 1.55 8.53 1.97 37.39 12.63 52 66.95 9.77 3.49 17.5 22.2 17.5 36.1 0 11.38-1.44 21.99-4.3 31.56 9.31 4.24 20.43 7.08 26.37 8.42 4.5 1.01 9.5 2.28 14.88 3.77 5.41 1.49 9.18 6.46 9.18 12.08 0 2.77-1.08 5.38-3.04 7.34s-4.56 3.04-7.32 3.04h-.26c-12.68-.31-36.02-1.66-49.94-7.32-1.22-.5-2.39-.98-3.52-1.44-4.98 5.55-10.43 8.83-14.73 8.83-1.11 0-2.2-.3-3.27-.89-1.17.59-2.37.89-3.57.89h-33.71c-1.34 0-2.57-.12-3.67-.35-3.64-.52-7.23-1.67-10.61-3.43-2.98 3.78-7.67 3.78-11.51 3.78h-28.15zm5.78-28.34c.11 2.51.2 4.61.29 6.26.47-.09.95-.16 1.45-.22 2.67-.33 4.39-.67 5.48-.95-1.84-1.55-4.03-2.99-6.33-4.5-.3-.19-.59-.39-.89-.59z"/></g><g opacity=".07"><path d="m162.76 286.44c-16.7 0-30.6-13.59-30.99-30.29-.4-16.93 12.91-31.06 29.78-31.73-1.11-3.15-1.67-6.44-1.67-9.8.2-16.64 13.88-30.15 30.49-30.15h.36c5.48 0 10.77 1.4 15.46 4.07 4.42-15.73 19-26.93 35.46-26.93 2.64 0 5.3.29 7.91.86 13.33 2.91 23.97 13.03 27.62 26.07 4.68-2.67 9.96-4.07 15.4-4.07h.42c16.61 0 30.29 13.52 30.49 30.14 0 3.37-.56 6.65-1.66 9.79 16.14.65 29.37 13.97 29.76 30.26.4 17.1-13.18 31.34-30.27 31.74-.25 0-.49 0-.73 0s-.49 0-.73 0c-15.7 0-23.45-6.73-32.43-14.52-1.91-1.66-3.89-3.38-6.04-5.12-11.17-9.16-25.28-14.25-39.71-14.32-13.68 0-27.27 4.49-38.26 12.65-3.23 2.41-6.04 4.89-8.76 7.28-8.56 7.54-15.94 14.06-31.2 14.06-.21 0-.46 0-.71 0z"/><path d="m30.71 346.48c-5.8-.17-11.2-2.58-15.18-6.8-3.99-4.22-6.09-9.74-5.93-15.55.32-11.38 9.14-20.39 20.32-21.08-.64-2.02-.96-4.11-.95-6.24.14-11.67 9.73-21.16 21.38-21.16h.25c3.63 0 7.15.88 10.3 2.56 2.7-8.83 10.01-15.65 19.13-17.64 1.82-.4 3.67-.6 5.52-.6 11.3 0 21.33 7.55 24.6 18.24 3.15-1.68 6.66-2.56 10.26-2.56h.28c11.65 0 21.24 9.48 21.38 21.14 0 2.15-.31 4.24-.95 6.26 5.5.36 10.58 2.74 14.38 6.77 3.99 4.22 6.09 9.75 5.93 15.55-.34 11.85-9.88 21.13-21.72 21.13-.21 0-.42 0-.63 0-10.6 0-15.98-4.74-21.68-9.76-1.85-1.63-3.76-3.32-5.96-4.96-7.55-5.6-16.52-8.56-25.92-8.56-9.79.05-19.35 3.5-26.92 9.71-1.46 1.19-2.81 2.35-4.11 3.49-6.23 5.41-11.62 10.08-22.59 10.08-.16 0-.37 0-.58 0s-.41 0-.62 0z"/><path d="m369.11 341.73c-1.02 0-1.95-.28-2.75-.83-1.27.54-2.56.83-3.7.83h-14.66c-2.08 0-3.88-.97-5.06-2.73-1.96-2.94-2.05-7.88-.22-12.3 1.68-4.07 4-6.08 5.65-7.05.4-.24.63-.63.63-1.06-.07-4.63-.95-11.61-1.97-19.7-1.57-12.42-3.52-27.88-3.52-42.63 0-12.06 3.08-21.92 5.72-28.16.02-1.94.06-3.88.1-5.83.03-1.14.05-2.28.07-3.43.2-11.89-9.18-35.88-13.35-45.94-6.69-6.98-9.08-15.64-9.08-21.45 0-10.64 2.93-20.94 7.84-27.55 1.47-1.98 3.76-4.26 6.48-6.46-.12-8.43-.99-20.87-1.36-25.93-.06-.88.23-1.74.82-2.36.56-.6 1.34-.95 2.14-.95.43 0 .85.1 1.25.29 5.76 2.77 15.59 10.12 22.68 16.91 2.83-.53 5.66-.8 8.4-.8 5.06 0 10.05.61 14.84 1.83 6.99-7.46 17.08-15.59 24.5-17.46.26-.07.53-.1.8-.1 1.15 0 2.25.62 2.96 1.65 2.98 4.33 6.81 15.16 6.28 24.21-.38 6.35-2.36 10.84-4.16 13.67 3.96 7.21 5.07 14.88 3.41 23.45.22 9.29 1.04 15.89 1.51 19.01.12.77.67 1.38 1.42 1.55 8.53 1.97 37.39 12.63 52 66.95 9.77 3.49 17.5 22.2 17.5 36.1 0 11.38-1.44 21.99-4.3 31.56 9.31 4.24 20.43 7.08 26.37 8.42 4.5 1.01 9.5 2.28 14.88 3.77 5.41 1.49 9.18 6.46 9.18 12.08 0 2.77-1.08 5.38-3.04 7.34s-4.56 3.04-7.32 3.04h-.26c-12.68-.31-36.02-1.66-49.94-7.32-1.22-.5-2.39-.98-3.52-1.44-4.98 5.55-10.43 8.83-14.73 8.83-1.11 0-2.2-.3-3.27-.89-1.17.59-2.37.89-3.57.89h-33.71c-1.34 0-2.57-.12-3.67-.35-3.64-.52-7.23-1.67-10.61-3.43-2.98 3.78-7.67 3.78-11.51 3.78h-28.15zm5.78-28.34c.11 2.51.2 4.61.29 6.26.47-.09.95-.16 1.45-.22 2.67-.33 4.39-.67 5.48-.95-1.84-1.55-4.03-2.99-6.33-4.5-.3-.19-.59-.39-.89-.59z"/></g><g fill="#ef56ac"><path d="m162.76 282.62c-16.28 0-29.84-13.25-30.22-29.54-.39-16.68 12.85-30.56 29.52-30.96h.58c-1.33-3.37-2-6.91-1.99-10.54.19-16.21 13.53-29.39 29.72-29.39h.35c5.7 0 11.17 1.55 15.95 4.48 3.99-15.91 18.53-27.34 34.98-27.34 2.59 0 5.19.28 7.74.84 13.38 2.92 23.99 13.27 27.31 26.5 4.78-2.93 10.24-4.48 15.88-4.48h.42c16.19 0 29.53 13.18 29.73 29.38 0 3.64-.67 7.17-1.99 10.52 16.22.07 29.7 13.3 30.08 29.54.39 16.68-12.85 30.56-29.52 30.96-.24 0-.48 0-.71 0s-.47 0-.71 0c-15.43 0-22.71-6.32-31.94-14.33-1.92-1.67-3.9-3.39-6.06-5.13-11.31-9.27-25.58-14.42-40.19-14.49-13.84 0-27.59 4.55-38.72 12.8-3.26 2.43-6.08 4.92-8.81 7.32-8.44 7.44-15.73 13.87-30.69 13.87-.22 0-.47 0-.71 0z"/><path d="m30.73 342.65c-5.6-.16-10.8-2.49-14.65-6.56s-5.88-9.4-5.72-15c.32-11.32 9.35-20.2 20.61-20.38-.83-2.23-1.25-4.57-1.25-6.97.13-11.25 9.38-20.39 20.62-20.39h.24c3.83 0 7.53 1.01 10.78 2.94 2.38-9.01 9.67-16.03 18.82-18.03 1.76-.38 3.57-.58 5.36-.58 11.28 0 21.26 7.77 24.13 18.61 3.25-1.93 6.94-2.94 10.73-2.94h.28c11.23 0 20.48 9.14 20.62 20.38 0 2.4-.41 4.74-1.24 6.97h.23c5.6.16 10.8 2.49 14.65 6.56s5.88 9.4 5.72 15c-.33 11.43-9.53 20.38-20.95 20.38-.2 0-.4 0-.61 0-10.33 0-15.37-4.44-21.19-9.57-1.86-1.64-3.79-3.34-6.01-5-7.69-5.7-16.81-8.71-26.38-8.71-9.97.05-19.7 3.56-27.41 9.88-1.47 1.19-2.82 2.36-4.13 3.5-6.12 5.31-11.4 9.9-22.09 9.9-.18 0-.38 0-.58 0s-.4 0-.6 0z"/><path d="m369.11 337.9c-1 0-1.91-.32-2.65-.94-1.31.61-2.64.94-3.8.94h-14.66c-1.84 0-3.37-.83-4.42-2.4-1.83-2.74-1.89-7.39-.15-11.58 1.6-3.87 3.78-5.77 5.33-6.68.64-.38 1.01-1.02 1-1.73-.07-4.67-.95-11.67-1.98-19.78-1.57-12.4-3.52-27.84-3.52-42.54 0-12.02 3.1-21.84 5.72-28 .01-1.99.06-3.98.1-5.97.03-1.14.05-2.29.07-3.43.21-12.09-9.3-36.36-13.47-46.38-6.61-6.84-8.96-15.33-8.96-21.02 0-10.48 2.88-20.62 7.69-27.1 1.49-2 3.84-4.32 6.64-6.56-.1-8.45-.99-21.21-1.37-26.35-.05-.67.17-1.31.61-1.79.41-.45.99-.7 1.58-.7.32 0 .63.07.92.21 5.78 2.78 15.71 10.23 22.76 17.05 2.92-.57 5.82-.86 8.64-.86 5.15 0 10.22.64 15.09 1.92 6.92-7.47 17.06-15.71 24.44-17.57.2-.05.41-.08.62-.08.89 0 1.76.49 2.33 1.32 2.42 3.53 6.71 14.12 6.14 23.73-.39 6.49-2.48 10.98-4.29 13.69.07.11.14.23.2.34 3.9 7.08 4.99 14.63 3.34 23.07.21 9.38 1.05 16.05 1.53 19.19.16 1.08.95 1.94 2 2.18 8.45 1.96 37.07 12.55 51.54 66.8 9.66 2.99 17.37 21.66 17.37 35.5 0 11.56-1.5 22.31-4.46 31.98 9.49 4.42 21.02 7.37 27.13 8.75 4.48 1.01 9.48 2.28 14.85 3.76 5.08 1.4 8.62 6.07 8.62 11.34 0 2.57-1 4.99-2.81 6.8s-4.22 2.81-6.78 2.81h-.24c-12.63-.3-35.87-1.65-49.67-7.26-1.4-.57-2.74-1.12-4.02-1.65-4.93 5.63-10.33 8.98-14.52 8.98-1.09 0-2.19-.34-3.26-1.01-1.18.67-2.39 1.01-3.59 1.01h-33.71c-1.29 0-2.47-.11-3.52-.33-3.81-.54-7.52-1.78-10.99-3.67-2.72 4-7.26 4-11.29 4h-28.15zm4.95-29.04c.15 3.69.29 6.61.39 8.66.73-.17 1.48-.3 2.26-.4 4.06-.5 6.01-1.04 6.91-1.38-2.06-1.95-4.68-3.66-7.43-5.47-.71-.46-1.42-.93-2.14-1.41z"/></g><path d="m162.76 279.97c-15.68 0-28.74-12.76-29.11-28.45-.38-16.06 12.38-29.44 28.44-29.82h.69s.46 0 .69 0h.24s.01-.03.01-.03h.6l-.21-.49c-1.55-3.54-2.34-7.29-2.34-11.15.19-15.59 13.02-28.28 28.61-28.28h.34c5.86 0 11.45 1.69 16.27 4.88l.42.28.11-.5c3.49-15.95 17.84-27.53 34.14-27.53 2.51 0 5.03.27 7.51.82 13.31 2.91 23.8 13.4 26.71 26.71l.11.5.42-.28c4.81-3.19 10.4-4.88 16.18-4.88h.42c15.59 0 28.43 12.68 28.62 28.28 0 3.86-.79 7.61-2.34 11.14l-.21.49h.84.71c15.68 0 28.74 12.76 29.11 28.45.38 16.06-12.38 29.44-28.44 29.82-.23 0-.46 0-.69 0s-.46 0-.69 0c-15.03 0-22.18-6.2-31.24-14.06-1.93-1.67-3.92-3.4-6.09-5.16-11.5-9.43-26.02-14.66-40.88-14.74-14.08 0-28.07 4.62-39.39 13.02-3.3 2.46-6.13 4.96-8.88 7.38-8.27 7.29-15.41 13.59-29.96 13.59-.24 0-.48 0-.71 0z" fill="#f582c2"/><path d="m31.33 340.01c-.19 0-.38 0-.57 0-5.3-.15-10.23-2.36-13.87-6.22s-5.57-8.9-5.41-14.21c.31-10.82 9.03-19.3 19.84-19.3h.8.53l-.21-.49c-1.06-2.41-1.59-4.96-1.59-7.6.13-10.63 8.88-19.28 19.5-19.28h.23c3.99 0 7.81 1.15 11.09 3.33l.42.28.11-.5c1.98-9.09 9.14-16.25 18.23-18.23 1.69-.37 3.41-.56 5.12-.56 11.12 0 20.92 7.9 23.3 18.79l.11.5.42-.28c3.28-2.18 7.1-3.33 11.04-3.33h.28c10.63 0 19.38 8.65 19.5 19.28 0 2.63-.53 5.18-1.59 7.59l-.21.49h.74c.19 0 .37-.01.56-.01s.38 0 .57 0c5.3.15 10.23 2.36 13.87 6.22s5.57 8.9 5.41 14.21c-.31 10.82-9.02 19.3-19.84 19.3-.19 0-.38 0-.58 0-9.94 0-14.83-4.31-20.49-9.29-1.88-1.66-3.82-3.37-6.08-5.05-7.89-5.84-17.24-8.93-27.05-8.93-10.23.05-20.21 3.65-28.11 10.13-1.48 1.2-2.84 2.38-4.15 3.52-6.19 5.38-11.09 9.62-21.36 9.62-.2 0-.39 0-.58 0z" fill="#f582c2"/><path d="m369.11 335.26c-.89 0-1.66-.33-2.26-.99l-.18-.19-.24.12c-1.31.68-2.65 1.06-3.78 1.06h-14.66c-1.46 0-2.66-.66-3.49-1.9-1.63-2.44-1.65-6.68-.05-10.54 1.49-3.59 3.47-5.33 4.87-6.15.97-.57 1.57-1.61 1.55-2.71-.07-4.74-.96-11.76-1.99-19.91-1.56-12.37-3.51-27.77-3.51-42.4 0-11.93 3.09-21.65 5.69-27.7l.03-.06v-.07c.01-2.03.06-4.07.1-6.11.03-1.14.05-2.29.07-3.44.21-12.35-9.45-36.96-13.61-46.96l-.03-.06-.05-.05c-6.45-6.62-8.75-14.85-8.75-20.35 0-10.25 2.79-20.14 7.47-26.43 1.48-1.99 3.87-4.33 6.73-6.58l.13-.11v-.17c-.08-8.48-.99-21.57-1.38-26.8-.03-.36.09-.7.32-.95.2-.22.48-.35.76-.35.15 0 .3.04.44.1 5.76 2.78 15.76 10.3 22.76 17.12l.13.13.18-.04c2.98-.61 5.95-.92 8.82-.92 5.21 0 10.34.67 15.25 2l.2.06.14-.16c6.81-7.43 16.93-15.75 24.2-17.58.11-.03.23-.04.34-.04.53 0 1.05.31 1.41.84 2.75 4.01 6.45 14.52 5.95 23.04-.39 6.57-2.59 10.99-4.37 13.54l-.13.18s.24.41.31.52c.08.13.17.27.24.4 3.78 6.87 4.83 14.19 3.21 22.39.21 9.56 1.05 16.31 1.53 19.49.23 1.54 1.35 2.75 2.85 3.1 8.31 1.92 36.55 12.4 50.83 66.42l.05.2.2.05c8.41 2.18 16.97 19.61 16.97 34.55 0 11.7-1.55 22.56-4.6 32.28l-.09.29.27.13c9.7 4.63 21.68 7.69 27.96 9.11 4.47 1.01 9.45 2.27 14.8 3.75 4.59 1.27 7.8 5.49 7.8 10.27 0 2.27-.88 4.41-2.49 6.02-1.6 1.6-3.73 2.49-5.99 2.49h-.21c-12.55-.3-35.64-1.64-49.28-7.18-1.59-.64-3.09-1.26-4.52-1.86l-.23-.1-.16.19c-4.75 5.56-10.13 9.01-14.04 9.01-1 0-2.02-.36-3.03-1.08l-.19-.14-.2.13c-1.15.74-2.27 1.09-3.42 1.09h-33.71c-1.21 0-2.31-.1-3.29-.31-3.98-.57-7.78-1.88-11.31-3.91l-.3-.17-.17.3c-2.17 3.79-5.81 4.09-10.72 4.09h-28.15zm3.78-29.4c.2 5.05.38 8.84.5 11.12l.02.43.42-.12c.97-.27 1.96-.47 3.02-.6 7.11-.87 8.18-1.91 8.32-2.11l.17-.24-.2-.21c-2.24-2.33-5.2-4.28-8.33-6.33-1.11-.73-2.24-1.47-3.38-2.25l-.57-.39.03.69z" fill="#f582c2"/></svg>