<svg viewBox="0 0 128 128" xmlns="http://www.w3.org/2000/svg"><path d="m64 128c-35.29 0-64-28.71-64-64s28.71-64 64-64 64 28.71 64 64-28.71 64-64 64z" fill="#fff"/><path d="m64 124.87c-33.56 0-60.87-27.31-60.87-60.87s27.31-60.87 60.87-60.87 60.87 27.31 60.87 60.87-27.31 60.87-60.87 60.87z" fill="#ef56ac"/><path d="m64 125.62c-33.22 0-60.24-27.02-60.24-60.24s27.02-60.24 60.24-60.24 60.24 27.02 60.24 60.24-27.02 60.24-60.24 60.24z" fill="#ef56ac"/><path d="m65.28 125.03c-30.52 0-55.36-24.83-55.36-55.36s24.84-55.36 55.36-55.36 55.36 24.83 55.36 55.36-24.83 55.36-55.36 55.36z" opacity=".1"/><path d="m64 122.12c-30.52 0-55.36-24.83-55.36-55.36s24.84-55.36 55.36-55.36 55.36 24.83 55.36 55.36-24.83 55.36-55.36 55.36z" opacity=".07"/><path d="m64 118.67c-30.14 0-54.67-24.52-54.67-54.67s24.53-54.67 54.67-54.67 54.67 24.52 54.67 54.67-24.52 54.67-54.67 54.67z" fill="#ef56ac"/><path d="m64 116.29c-29.59 0-53.66-24.07-53.66-53.67s24.07-53.66 53.66-53.66 53.67 24.07 53.67 53.66-24.07 53.67-53.67 53.67z" fill="#f582c2"/><path d="m38.75 79.87 10.39 14.98h21.51c2.91 0 5.72-1.04 7.93-2.94l23.81-20.45c1.8-1.54 1.9-4.27.22-5.93-.79-.79-1.82-1.19-2.87-1.19-.82 0-1.66.26-2.38.78l-18.44 13.43c0-2.09-.7-4.03-1.91-5.56-.22-.31-.48-.59-.75-.86-1.08-1.08-2.45-1.91-3.99-2.33-.78-.22-1.59-.33-2.43-.33h-12.13c-4.35 0-8.54 1.55-11.86 4.36l-7.12 6.06z" fill="#f582c2"/><path d="m70.64 96.14h-21.51c-.42 0-.82-.21-1.06-.55l-10.39-14.98c-.38-.54-.28-1.29.22-1.71l7.12-6.06c3.55-3.01 8.06-4.67 12.69-4.67h12.13c.96 0 1.89.13 2.78.38 1.69.46 3.27 1.38 4.55 2.65.37.37.65.69.89 1.02.92 1.17 1.56 2.52 1.89 3.98l16.66-12.13c2.1-1.52 5.1-1.27 6.91.55 1.05 1.04 1.62 2.49 1.57 3.97s-.73 2.89-1.86 3.85l-23.81 20.45c-2.44 2.09-5.55 3.25-8.77 3.25zm-20.83-2.58h20.83c2.6 0 5.12-.93 7.09-2.63l23.81-20.45c.59-.51.94-1.22.96-1.99.03-.77-.26-1.5-.81-2.05-.94-.94-2.5-1.07-3.58-.29l-18.44 13.43c-.39.29-.91.33-1.34.11s-.7-.66-.7-1.15c0-1.76-.57-3.41-1.63-4.77-.18-.25-.38-.48-.65-.75-.96-.96-2.14-1.65-3.42-1.99-.67-.19-1.37-.29-2.09-.29h-12.13c-4.03 0-7.94 1.44-11.02 4.05l-6.23 5.3 9.34 13.47z" fill="#fff"/><path d="m59.28 77.25h19.65v2.58h-19.65z" fill="#fff"/><path d="m77.01 72.97c1.21 1.54 1.91 3.47 1.91 5.56l15.96-11.62c1.3-.95 1.45-2.84.31-3.98-.9-.9-2.32-1.03-3.36-.3l-14.81 10.34z" fill="#f4c2a6"/><path d="m78.92 79.83c-.2 0-.4-.05-.58-.14-.43-.22-.7-.66-.7-1.15 0-1.76-.57-3.41-1.63-4.77-.22-.28-.31-.63-.26-.98s.25-.66.54-.87l14.81-10.34c1.56-1.09 3.66-.9 5.01.44.81.81 1.22 1.93 1.13 3.07s-.67 2.18-1.6 2.86l-15.96 11.62c-.22.16-.49.25-.76.25z" fill="#fff"/><path d="m72.27 69.78c1.54.42 2.91 1.24 3.99 2.33.27.27.53.55.75.86l10.78-7.52c1.35-.95 1.37-2.97.01-3.93-.8-.57-1.87-.59-2.7-.05l-12.84 8.31z" fill="#f9c1a2"/><g fill="#fff"><path d="m77.01 74.26c-.4 0-.79-.19-1.05-.54-.15-.21-.35-.44-.62-.7-.96-.96-2.14-1.65-3.42-1.99-.49-.13-.86-.54-.93-1.04-.08-.5.15-1 .57-1.28l12.84-8.31c1.27-.83 2.89-.8 4.14.08.98.69 1.56 1.82 1.55 3.02 0 1.2-.59 2.33-1.57 3.01l-10.79 7.52c-.22.16-.48.23-.74.23z"/><path d="m45.81 103.2c-.08 0-.15 0-.23-.02-.34-.06-.63-.25-.83-.53l-14.12-20.36c-.4-.58-.26-1.39.32-1.79l5.55-3.85c.28-.19.62-.27.96-.21s.63.25.83.53l14.12 20.36c.4.58.26 1.39-.32 1.79l-5.55 3.85c-.22.15-.47.23-.73.23z"/><path d="m85.29 42.72c0 11.43-9.24 20.67-20.67 20.67-9.29 0-17.13-6.1-19.76-14.52-.59-1.92-.92-3.99-.92-6.15 0-1.17.09-2.3.28-3.4 1.62-9.81 10.11-17.27 20.39-17.27 11.43 0 20.67 9.24 20.67 20.67z"/><circle cx="58.02" cy="34.38" r="4.11"/></g><path d="m58.02 40.58c-3.42 0-6.2-2.78-6.2-6.2s2.78-6.2 6.2-6.2 6.2 2.78 6.2 6.2-2.78 6.2-6.2 6.2z" fill="#ef56ac" stroke="#fff" stroke-miterlimit="10" stroke-width="1.02"/><circle cx="71.13" cy="50.77" fill="#fff" r="4.11"/><path d="m71.13 56.97c-3.42 0-6.2-2.78-6.2-6.2s2.78-6.2 6.2-6.2 6.2 2.78 6.2 6.2-2.78 6.2-6.2 6.2z" fill="#ef56ac" stroke="#fff" stroke-miterlimit="10" stroke-width="1.02"/><path d="m58.02 31.72c-1.47 0-2.66 1.19-2.66 2.66s1.19 2.66 2.66 2.66 2.66-1.19 2.66-2.66-1.19-2.66-2.66-2.66z" fill="#fff"/><path d="m71.13 48.11c-1.47 0-2.66 1.19-2.66 2.66s1.19 2.66 2.66 2.66 2.66-1.19 2.66-2.66-1.19-2.66-2.66-2.66z" fill="#fff"/><path d="m52.79 40.66h23.69v4.19h-23.69z" fill="#ef56ac" stroke="#fff" stroke-miterlimit="10" stroke-width="1.02" transform="matrix(.70710678 -.70710678 .70710678 .70710678 -11.3 58.23)"/><path d="m78.79 73.3c.53.9.92 1.88 1.15 2.9l14.17-10.32c.32-.23.52-.58.55-.98s-.11-.77-.39-1.05c-.46-.46-1.18-.52-1.72-.15l-13.77 9.61z" fill="#f582c2"/><path d="m75.01 69.54c.78.45 1.51 1.01 2.16 1.66l.05.05 9.84-6.86c.3-.21.47-.54.47-.91s-.17-.7-.47-.91c-.37-.26-.87-.27-1.24-.02z" fill="#f582c2"/></svg>