<svg viewBox="0 0 245 18" xmlns="http://www.w3.org/2000/svg"><g fill="#ef56ac"><path d="m3.69 17.95s-.06.04-.1.04c-.07 0-.09-.05-.06-.16l2.13-6.7-5.6-4.15s-.06-.07-.06-.1c0-.07.05-.1.14-.1h6.91l2.16-6.68c.03-.07.06-.1.11-.1s.07.03.09.1l2.15 6.68h6.91c.07 0 .11.02.13.06s0 .09-.05.14l-5.6 4.15 2.13 6.7.02.08c0 .05-.02.08-.05.09-.03 0-.07 0-.13-.05l-5.6-4.13-5.62 4.13z"/><path d="m60.29 17.95s-.06.04-.1.04c-.07 0-.09-.05-.06-.16l2.13-6.7-5.6-4.15s-.06-.07-.06-.1c0-.07.05-.1.14-.1h6.91l2.16-6.68c.03-.07.06-.1.11-.1s.07.03.09.1l2.15 6.68h6.91c.07 0 .11.02.13.06s0 .09-.05.14l-5.6 4.15 2.13 6.7.02.08c0 .05-.02.08-.05.09-.03 0-.07 0-.13-.05l-5.6-4.13-5.62 4.13z"/><path d="m116.89 17.95s-.06.04-.1.04c-.07 0-.09-.05-.06-.16l2.13-6.7-5.6-4.15s-.06-.07-.06-.1c0-.07.05-.1.14-.1h6.91l2.16-6.68c.03-.07.06-.1.11-.1s.07.03.09.1l2.15 6.68h6.91c.07 0 .11.02.13.06s0 .09-.05.14l-5.6 4.15 2.13 6.7.02.08c0 .05-.02.08-.05.09-.03 0-.07 0-.13-.05l-5.6-4.13-5.62 4.13z"/><path d="m173.49 17.95s-.06.04-.1.04c-.07 0-.09-.05-.06-.16l2.13-6.7-5.6-4.15s-.06-.07-.06-.1c0-.07.05-.1.14-.1h6.91l2.17-6.68c.03-.07.06-.1.11-.1s.07.03.09.1l2.15 6.68h6.91c.07 0 .11.02.13.06s0 .09-.05.14l-5.6 4.15 2.13 6.7.02.08c0 .05-.02.08-.05.09-.03 0-.07 0-.13-.05l-5.6-4.13-5.62 4.13z"/><path d="m230.09 17.95s-.06.04-.1.04c-.07 0-.09-.05-.06-.16l2.13-6.7-5.6-4.15s-.06-.07-.06-.1c0-.07.05-.1.14-.1h6.91l2.17-6.68c.03-.07.06-.1.11-.1s.07.03.09.1l2.15 6.68h6.91c.07 0 .11.02.13.06s0 .09-.05.14l-5.6 4.15 2.13 6.7.02.08c0 .05-.02.08-.05.09-.03 0-.07 0-.13-.05l-5.6-4.13-5.62 4.13z"/></g></svg>