<svg viewBox="0 0 1280 1837" xmlns="http://www.w3.org/2000/svg" xmlns:xlink="http://www.w3.org/1999/xlink"><clipPath id="a"><path d="m50 1413.6v-1286.62c42.35 0 76.69-34.34 76.69-76.69h1026.62c0 42.35 34.34 76.69 76.69 76.69v1286.62c-42.35 0-76.69 34.34-76.69 76.69h-1026.62c0-42.35-34.34-76.69-76.69-76.69z"/></clipPath><path d="m0 0h1280v1837h-1280z" fill="#0a3766"/><path d="m135.61 1484.48c-2.86-42.7-37.11-76.94-79.81-79.81v-1268.78c42.7-2.86 76.94-37.11 79.81-79.81h1008.79c2.86 42.7 37.11 76.94 79.81 79.81v1268.79c-42.7 2.86-76.94 37.11-79.81 79.81h-1008.79z" fill="#e3eafc"/><path d="m1139.13 61.89c5.24 41.25 38.02 74.03 79.27 79.27v1258.26c-41.25 5.24-74.03 38.02-79.27 79.27h-998.26c-5.24-41.25-38.02-74.03-79.27-79.27v-1258.26c41.25-5.24 74.03-38.02 79.27-79.27zm10.87-11.6h-1020c0 44.18-35.82 80-80 80v1280c44.18 0 80 35.82 80 80h1020c0-44.18 35.82-80 80-80v-1280c-44.18 0-80-35.82-80-80z" fill="#94b8e0"/><g clip-path="url(#a)"><g fill="#94b8e0" opacity=".3"><path d="m638.23 865.23h.01z" opacity=".33"/><path d="m638.9 865.73.07-.02-.01-.04-.09.03z" opacity=".33"/><path d="m638.38 865.34.01.01h.01z" opacity=".33"/><path d="m638.86 865.25.06-.02v-.03z" opacity=".33"/><path d="m638.9 865.49.04-.03v-.08z" opacity=".33"/><path d="m638.22 864.99-.01.02.01.02z" opacity=".33"/><path d="m637.58 866.49v-.01z" opacity=".33"/><path d="m638.35 865.32-.01.02.02-.01z" opacity=".33"/><path d="m637.35 866.16.04.01.03-.01v.01l.05-.07-.01.01.01-.02-.03-.02-.06.06.05-.06-.03-.02-.1.1h.02l-.04.05z" opacity=".33"/><path d="m637.7 866.08-.03-.03h-.03l.02.04z" opacity=".33"/><path d="m638.17 865.15-.04-.04-.02.03z" opacity=".33"/><path d="m637.58 866.55-.02.01.01-.05-.15.06.15-.07v-.02l-.14.03.01-.06-.16.13h.02l-.04.03.08-.03-.02.11.1-.11h.12l-.01.02z" opacity=".33"/><path d="m637.9 866.37h.02l-.03-.04z" opacity=".33"/><path d="m638.22 866.35v-.01l-.01.01z" opacity=".33"/><path d="m637.93 866.36.02-.01h-.02z" opacity=".33"/><path d="m637.91 866.41.08.05-.04-.06z" opacity=".33"/><path d="m638.33 865.36h.03l-.02-.02z" opacity=".33"/><path d="m638.08 866.97.05-.09h-.07z" opacity=".33"/><path d="m638.2 866.74-.03-.05-.07.08.05.07z" opacity=".33"/><path d="m638.22 866.89-.05-.01.03.04z" opacity=".33"/><path d="m637.91 866.4.02-.02-.01-.01z" opacity=".33"/><path d="m637.71 866.03v.01l.01-.01z" opacity=".33"/><path d="m637.9 865.88h.03l-.03-.01z" opacity=".33"/><path d="m637.46 865.96-.05.08.03.02v.01l.01-.01.02.01.01-.13-.02.03z" opacity=".33"/><path d="m637.72 866.23-.01.01.04.01z" opacity=".33"/><path d="m649.96 881.89c-.18.08-.35.17-.53.25l-3.56-5.51-4.89-6.31 2.62 5 391.36 626.2h82.13z" opacity=".33"/><path d="m640.4 871.23-.56-1.37 1.68 8.55 1.73 5.75c-.19.04-.39.08-.58.12l118.1 617.24h63.23l-183.61-630.29z" opacity=".33"/><path d="m640.48 881.15-1.97-9.95-.22 2.35 1.11 11.17c-.51.03-.88.04-1.1.04l.43 616.75h60.6l-58.83-620.36z" opacity=".33"/><path d="m646.88 883.15c-.47.16-.94.31-1.42.45l244.55 617.92h69.81z" opacity=".33"/><path d="m632.89 871.01 2.28-2.48-12.15 11.18c-.38-.3-.75-.61-1.11-.93l13.32-10.39-2.69 1.78-584.83 472.92v82.64l585.18-554.71z" opacity=".33"/><path d="m635.69 884.58c-.07 0-.13-.02-.2-.03l.4-2.07.97-10.12-1.93 6.51-118.27 622.65h61.46l57.56-616.94z" opacity=".33"/><path d="m649.23 872.57-7.38-4.07 2.03 1.58 11.73 7.7c-.25.27-.52.54-.79.8l574 463.66v-70.85l-579.6-398.82z" opacity=".33"/><path d="m660.06 869.6c-.04.15-.08.3-.13.45l-6.45-1.37-10.42-1.46 2.08.6 583.67 124.27v-43l-568.76-79.5z" opacity=".33"/><path d="m648.69 870.05-5.07-1.87 7.21 3.98 6.73 3.07c-.1.16-.21.32-.31.47l571.57 315.75v-55.93l-580.14-265.48z" opacity=".33"/><path d="m637.94 866.51.01.02.01.04v.01h.01l-.05.03.05-.01.02.05.02-.03v.02l.08-.05v-.01l.13-.02-.03-.02.03-.02v-.01l-.15.01h-.02l-.01.01.01-.01z" opacity=".33"/><path d="m650.31 866.84 6.81.94 571.7 39.46v-42.44z" opacity=".33"/><path d="m659.25 871.99c-.16.4-.34.79-.52 1.17l570.1 211.26v-47.51z" opacity=".33"/><path d="m620.38 877.17c-.14-.17-.28-.34-.42-.52l7.61-4.22 5.42-3.57-7.85 3.61-577.43 319.69v79.98l572.68-394.97z" opacity=".33"/><path d="m622.3 868.81 8.16-1.75-10.56.74-3.72.53c-.02-.09-.04-.18-.05-.26l-568.41 39.81v41.86l574.59-80.92z" opacity=".33"/><path d="m636 866.58.7-.21.06.01.05-.03h-.02l.16-.09-.26.07-.37-.05-.1.06.36.02-.73.22z" opacity=".33"/><path d="m635.29 867.35.7-.46h-.06l.21-.1-.92.1-.23.13.19-.03-2.62 1.37z" opacity=".33"/><path d="m618.47 874.41c-.12-.22-.24-.43-.36-.66l9.59-3.58 6.47-2.96-.82.17-585.64 217.7v51.12z" opacity=".33"/><path d="m636.25 867.36-1.52 1.1 1.04-.58z" opacity=".33"/><path d="m634.91 866.89h-.05l.17-.08-1.32.39.22-.03-.1.03z" opacity=".33"/><path d="m637.51 865.7-.01-.01v.04z" opacity=".33"/><path d="m636.36 867.83.2-.32-.58.38-.76.98z" opacity=".33"/><path d="m632.84 867.5-15.55 4.5c-.14-.36-.28-.72-.41-1.08l-569.17 121.82v44.85l585.13-170.1z" opacity=".33"/><path d="m636.83 867.1.13-.21-.92.84.11-.06.82-.64z" opacity=".33"/><path d="m637.52 865.93.01.04.02-.03z" opacity=".33"/><path d="m637.16 866.57-.01.01h.01z" opacity=".33"/><path d="m637.13 866.4.01-.01z" opacity=".33"/><path d="m638.8 864.01-.05-.49h-.15l.12.62z" opacity=".33"/><path d="m640.78 847.18c.12.01.23.03.35.05l-.68 3.46-.86 9.07 2.04-6.86 157.83-814.01h-82.17l-76.52 808.3z" opacity=".33"/><path d="m617.1 863.59h-2.78s-566.61-38.47-566.61-38.47v41.45h568.18v-.69s17.48 0 17.48 0l-1.23.17 2.24.15.57-.12-1.47-.21h3.56l-.1.06.12-.06.15.07-.31.12.25.05.17-.11-.08-.04.08.04.13-.08-.06-.04-.18.07-.12-.07h.3l-.18-.07.1-.04.13.09-.03-.14s0-.03 0-.03v.02s.08-.03.08-.03l-.06-.02h-.02s-.02-.01-.02-.01v.02s0 0 0 0l-.2-.08.11-.03-.02-.02.04.02h.01s.04 0 .04 0v-.02s.05-.01.05-.01l.07.08s0 .05 0 .05v-.04s.02 0 .02 0v.03s.01 0 .01 0l.05.05-.07-.02v.03s0 .11 0 .11-.01-.02-.01-.02v-.09s0 .08 0 .08l-.03-.03.02.04-.04.04.04.03h.03s.01 0 .01 0 .04.05.04.05v-.02s0 0 0 0l.32-.04-.17-.12.02-.02s.04-.04.04-.04h-.01s.02 0 .02 0-.03-.06-.03-.06l.16-.18.03.03h.02s.02 0 .02 0l.02-.03.05.05-.02-.06h.02s.03.07.03.07l.13.06v-.12s-.03 0-.03 0l.08-.06s.02 0 .02 0 .06-.03.06-.03l-.03-.03-.05-.05v.03l-.05-.03s-.03 0-.03 0h-.02s.05-.03.05-.03h-.18s0-.02 0-.02l-.06-.04s-.04-.03-.04-.03v.02s-.05-.03-.05-.03h.01l-.05-.12.13.13v-.05s.1.05.1.05l.02-.04-.09-.09.06-.22.1.19.03-.11.02.02.03-.04v.08s0 0 0 0v.22s0 .02 0 .02v-.02s.05.02.05.02h-.02s0 .01 0 .01l-.03.02v.02s0 0 0 0l.09.06s0 0 0 0v.02s.04-.02.04-.02l.06.03.09-.05.02.02h.01s-.03-.04-.03-.04v-.02s-.03-.03-.03-.03h.04s.01 0 .01 0h.02s0-.03 0-.03l.13-.06h-.07s.23-.14.23-.14v.06s.02 0 .02 0v-.07s.2-.13.2-.13l-.07.14h.03s-.03.1-.03.1h-.12s0 .02 0 .02l-.11.1h.12s0-.09 0-.09l.02.08h.01s-.01 0-.01 0v.04s.06 0 .06 0v.03s.09-.04.09-.04v.08s-.05 0-.05 0l-.06.05.02.1.08-.07v.05s.14-.11.14-.11h.03s0 0 0 0h-.03s.05-.1.05-.1h-.03s.24-.11.24-.11l-.02.03-.02.02.23-.07-.05.06.62-.04-.37.24-.4-.03.05-.07-.06.07h-.12s0 0 0 0l.11.02-.25.28.02-.09-.09.11h-.06s0 0 0 0h-.02s.02.01.02.01h-.01s0 .04 0 .04.01.06.01.06l-.05.08v-.02s-.01.01-.01.01h-.01s.02.02.02.02l-.03.04h.04v-.04s.02.03.02.03.02 0 .02 0 .04.06.04.06h.01s.02.04.02.04l.02-.07s.36-.04.36-.04.25.14.25.14l-.15.03.63.23s.18.07.18.07h-.05s.26.15.26.15l.75.18-.25-.12h2.48l-1.56-.33-1.42.1-.19-.09 1.01-.14-1.07-.23-.5.11-.26-.12h.72l-.56-.12-.21.1-.05-.03.16-.09h-.02s.58-.31.58-.31l.17.02.18-.07-.16.07 1.19.17-1.2.26h6.81l-2.5.17 3.74.52h9.68l-10.22-.69h12.75v-2.24s568.18-40.35 568.18-40.35v-41.88l-574.68 81.52-2.51.54h-1.31s-7.16 1.02-7.16 1.02l2.27-.66 1.59-.34h-.42s12.65-3.67 12.65-3.67c.13.32.25.64.37.97l569.19-122.4v-44.88l-582.4 169.99h-.8s583.2-217.52 583.2-217.52v-51.18l-570.77 262.54c.13.24.27.48.4.72l-10.26 3.81-3.54 1.62h-.85s-.41.16-.41.16l.28-.15h-1.05s-1.51 1-1.51 1l-1.46.54.04-.06-.13.02.51-.5.19-.09-.15.16 2.13-1.07h-.77s.37-.29.37-.29l-.52.29h-.22s2.36-1.56 2.36-1.56l585.35-456.78v-82.84l-585.1 538.33-2.43 2.64 12.23-11.23c.37.29.74.6 1.08.91l-13.66 10.64.13-.08-.42.35.27-.24-.45.34.58-.47h-.22l.53-.68-.74.69h-.16l-.9.97-.21.12.51-1.08h-.09l1.15-2.04-1.3 1.68.08-.43-.15.52-.21.28h-.1l.25-.62.26-.41.07-.37-.08.16.26-1.09-.75 1.84-.13.43.1-.16-.43.86v-.05s-.08.14-.08.14v.05s-.27.47-.27.47l-.02-.08-.14.18-.03-.05.15-.23-.14-.47.18-.62h-.2v.57s-.05-.57-.05-.57h-.12l-.1-.32-.06.32h-.22l.09-.96-.92-3.07.37 3.69.18.34-.17-.26.03.26v.1s-.03-.1-.03-.1h-.08l.18.76-.13-.14.2.67-.02-.02v.1s-.02-.02-.02-.02l.04.12-.22-.28.13.12-.15-.21.06.03-.19-.71-2.53-2.73 1.48 2.3h-.11l.5.61-.45-.29-.24-.32h-.15l.12.13-.2-.13h-.04l.68.53-.02-.03.8.63-.23-.1.22.34-.4-.37-.1-.1.05.06-.89-.44-.66-.51h-.46s-1.79-.82-1.79-.82l1.25.82h-1.06s-7.91-4.36-7.91-4.36l-5.92-2.71c.09-.13.18-.27.27-.4l-571.54-314.84v55.85l580.57 264.87 4.48 1.66h-.83s2.33 1.07 2.33 1.07l-.76-.16-2.43-.9h-.74s2.92.85 2.92.85l-3.15-.84h-.81s-581.58-123.24-581.58-123.24v42.96l568.77 78.87c.04-.13.08-.27.12-.4l5.64 1.2 4.44.62h-1.52s5.33 1.14 5.33 1.14l-10.62-.72-2.76-.39zm20.39 2.25v-.02s0 .01 0 .01zm.77-.51v.03l-.03-.02h.03zm-.12.06v.03s-.06-.01-.06-.01zm-.15-.13s-.02.03-.02.03.02-.03.02-.03zm-.03-.07v.02s0 0 0 0zm1.08.66h-.02s.02 0 .02 0zm.29-.19-.14-.03.33-.1-.19.12zm-.09-.09.2-.26.35.05zm18.07-1.71 3.1-.22c.08.45.14.88.18 1.29l-13.06.92-2.89-.2 12.66-1.78zm-13.58.32 1-.22-1.9.56h-.02s.92-.34.92-.34zm2.26.48-3.8.81-1.63-.11 1.05-.39zm-4.41-.02 1.02-.22-.41.19-.75.11.13-.08zm-.69.38.28-.02-.52.15zm.44-.01-.77.35-.25-.02 1.02-.34zm-1.7-.2-.12.18h-.09s.21-.18.21-.18zm-.28-.16.06-.04-.06.06zm-.03.18.13-.06-.14.11v-.05zm-.18.44s0 0 0 0zm.04-1.1-.05.55-.23.13-.03-.33.31-.34zm-.35.43.05.25-.19.11.15-.36zm-.29.26v.03s-.02-.01-.02-.01zm-.02.34v.02s-.02 0-.02 0zm-.23 0h.04s0 0 0 0h-.05zm-.01-1.05v.64l-.05-.07v-.41s.05-.16.05-.16zm-1.94 1.28-.15-.08h.19s-.45-.14-.45-.14l-.28-.16.95.27h.08s.1.05.1.05.2.13.2.13l-.36-.11-.25.04zm.95.29-.09.05-.34-.12.24-.05zm-.18-.44h.06s.02.03.02.03h-.05s-.03-.03-.03-.03zm.12.02-.04-.03h.02s.03.03.03.03zm.31.24h-.01s.02-.05.02-.05v.05zm-.01-.1.02-.17h.04s-.03.19-.03.19l-.02-.02zm.05.04h.06s.01.02.01.02l-.03.02zm.1.17-.05-.04.06.02v.02zm-.02-.09s0 0 0 0zm.04.14s0 0 0 0zm0-.24v-.02s.07-.02.07-.02zm.05.09v-.03s.04-.02.04-.02zm-.41-1.87.29.65.02-.24.13.16-.06.3.05.12-.05-.06v-.02s-.01 0-.01 0l-.1-.1v-.12s-.28-.71-.28-.71zm.33 1.16v.07s-.08-.05-.08-.05v-.06s.08.04.08.04zm-.39.14-.02-.09.23.18-.03-.06.1.12v-.1s.07.03.07.03l-.02.08h-.04s.03.02.03.02v.07s.05 0 .05 0l-.07.03v-.02s-.01 0-.01 0v.02s-.03 0-.03 0-.03 0-.03 0h-.03s.02 0 .02 0h-.04s.01.13.01.13l-.12-.11h-.02s0-.02 0-.02l-.12-.11.1.04-.32-.23.28.04zm-4.29-1.41 2.4.89.5.32.61.09.37.13-.13-.1.11.02-.31-.39.51.55.07.02h-.06s.06.06.06.06h-.02s.04.06.04.06l-.1-.08-.9-.19.14.09-.7-.05-.48-.27-.73-.16.6.08-1.97-1.09zm.78.92h-.03s1.77.5 1.77.5l-.33-.02h-.01s0 0 0 0l-1.86-.54zm.53.97.67.14-1.55.22-1.42-.2z" opacity=".33"/><path d="m644.15 847.81c.4.1.79.2 1.17.31l-4.72 11.63-.48 1.63 332.32-822.49h-88.33z" opacity=".33"/><path d="m639.81 862.42 3.35-5.24 4.34-8.35c.27.1.54.2.8.31l515.75-806.5c-.14-1.24-.25-2.49-.29-3.75h-97.79l-425.98 822.96-.17.57z" opacity=".33"/><path d="m47.71 648.06v47.46l569.57 164.26c.16-.39.33-.77.51-1.14z" opacity=".33"/><path d="m626.56 849.88c.17-.08.34-.17.52-.25l3.37 5.25 5.16 6.63-2.18-4.19-521.87-809.35c-5.88 25.25-32.21 44.3-63.85 44.3v13.6l578.86 744.01z" opacity=".33"/><path d="m642.04 861.07 4.41-4.79 4.54-5.87c.19.1.38.21.56.32l577.27-627.57v-122.94l-582.92 754.82-3.87 6.03z" opacity=".33"/><path d="m636.36 861.26.32.79-1.9-9.57-1.47-4.89c.16-.03.32-.07.48-.1l-160.41-808.6h-84.77l247.75 822.38z" opacity=".33"/><path d="m629.64 848.62c.45-.15.9-.3 1.34-.43l-330.88-809.3h-93.67z" opacity=".33"/><path d="m635.96 850.13 2.04 10.38.2-2.1-1.06-11.37c.49-.03.84-.04 1.04-.04l-1.68-808.11h-80.86z" opacity=".33"/><path d="m638.27 861.84.27 1.41.14-.46-.2-2.06z" opacity=".33"/><path d="m636.85 862.87-.07-.36-.07-.11z" opacity=".33"/><path d="m623.21 851.92c.32-.24.65-.47.99-.7l9.49 10.28 1.56 1.42-4.44-5.73-583.1-629.63v98.4l575.5 525.97z" opacity=".33"/><path d="m638.26 865.92h.01l-.01-.01z" opacity=".33"/><path d="m634.64 870.52-4.22 4.58-4.84 6.27c-.21-.11-.41-.23-.61-.35l-525.37 587.31c8.29 9.22 13.22 20.72 13.22 33.18h47.63l470.49-625.22 3.7-5.78z" opacity=".33"/><path d="m638.88 865.92-.05.05-.03-.09h.04l-.04-.05v.02s-.05-.08-.05-.08h.02s0-.01 0-.01h.01s.05 0 .05 0v.03s.08.03.08.03l-.05-.07s-.02-.04-.02-.04v.02s-.04-.02-.04-.02l-.05.02v-.04s0-.01 0-.01l-.02-.03.05-.03s.02-.02.02-.02.03-.03.03-.03.01-.03.01-.03l-.12-.05.06.07-.09-.11s0 0 0 0l.16.09.1-.2v-.02s-.27.1-.27.1-.01 0-.01 0-.02 0-.02 0l-.02.02h-.01s-.12.05-.12.05-.04-.05-.04-.05l.03.05-.14-.09-.03.06h-.03s-.03.11-.03.11-.03.07-.03.07v-.06l-.05.02.05.05v.03s0 .01 0 .01v-.04l.04.04-.02.02h.01s-.04.04-.04.04v-.02l-.03.03s-.02.03-.02.03-.03.03-.03.03-.03.07-.03.07h-.05s-.02 0-.02 0h.07l-.09.06-.02-.02-.02.02h-.01s-.05.03-.05.03l-.04-.08-.05.1s-.02.04-.02.04h-.01s0 .01 0 .01-.02.03-.02.03l.02.02-.06.05s-.03.03-.03.03h.01s0 .02 0 .02l.11.07-.03-.04.12.06s.08.03.08.03h.01s.04 0 .04 0l.05-.02s0 0 0 0 .02.02.02.02l.09-.38h.01s-.02-.05-.02-.05h-.03s-.04 0-.04 0h.07l-.03-.07.08.1v.04s.02-.03.02-.03h-.02s.52-.04.52-.04l-.03.17h.02s-.02 0-.02 0l-.03.02.06.05v.02s0 .01 0 .01v-.02s.03.03.03.03.02.02.02.02l.12.23v.02s-.3-.11-.3-.11l-.02.08h-.02s-.01 0-.01 0h.03s-.01.04-.01.04l-.03-.03-.05.04.04-.05-.02-.02h.03s.01-.01.01-.01l-.07-.06.05-.03-.04-.02-.04.02s-.03.01-.03.01l-.04-.04s-.02-.02-.02-.02v.02s-.02 0-.02 0-.12.03-.12.03l.03.03-.03.02.03.04h-.03s.06.04.06.04h.02s0 0 0 0l.08-.05-.06.06.09.02h-.05s.06.04.06.04-.01-.04-.01-.04l.04.03.02-.03h.02s-.01.02-.01.02h.06s-.02.06-.02.06h.15l-.08-.07h.09s-.02-.01-.02-.01l.12-.02.11.02v.02s.04 0 .04 0v-.02s.06.02.06.02l-.05-.05v-.02s0 0 0 0l.02-.08.02.02v-.06s0 0 0 0l.14.12s.01 0 .01 0h-.02s.22.13.22.13v-.02s.08 0 .08 0l-.12-.13h-.05s-.01-.02-.01-.02h.04s-.14-.16-.14-.16l-.07-.09v.02s-.02-.03-.02-.03h-.04s0 0 0 0l-.06-.05-.02.03h-.03s-.03 0-.03 0h.02s-.1-.06-.1-.06l.04-.05.09.03v.05s.01 0 .01 0v-.04s0 0 0 0v-.06s-.01.05-.01.05v-.13s-.02 0-.02 0l-.02-.03-.04.07-.03-.03zm-1.05.13s0 0 0 0zm.25-.06h-.01s.01-.01.01-.01zm.23-.11s0 0 0 0zm.1.51v-.02s0-.03 0-.03l.02.04h-.02zm.01.04h.01s0 .01 0 .01zm.04.09-.04-.09h.01s.05.09.05.09h-.03zm.22-.01-.05-.04.15.03h-.1zm.27-.15v.08s-.04-.11-.04-.11l.04.04zm-.11-.28v-.02s.02 0 .02 0l-.02.03z" opacity=".33"/><path d="m638.61 865.37.04.04-.03-.05z" opacity=".33"/><path d="m653.27 879.89c-.28.21-.58.42-.88.62l-8.65-9.34-2.14-1.96 4.24 5.45 531.6 593.13c11.91-12.91 30.5-21.23 51.39-21.23v-21.85l-575.56-544.81z" opacity=".33"/><path d="m453.47 1501.52 178.9-617.56c-.41-.1-.83-.21-1.23-.33l5.09-12.59.34-1.14.2-.39-.07.37.41-1.02.12-.28-.02.04.07-.48.27-.34.13-.33v.14s.09-.1.09-.1l-.04-.18.1-.26-.13.14-.04-.19-.03.08.02.17-.36.68.03-.32-.11.13.24-.81-.06.04v-.08s0 0 0 0v-.03s-.13.16-.13.16l.11-.1-.13.16.06-.03-.21.83-.49.53-.94 1.82 1.3-1.68-.03.13.22-.38-.28.68-.15.39.03-.1-3.26 5.14-4.43 8.55c-.28-.11-.57-.22-.85-.33l-385.65 618.9h75.11l318.58-631.03-248.71 631.03h65.92z" opacity=".33"/><path d="m637.58 865.28-.01-.01v.01z" opacity=".33"/><path d="m637.56 865.18h-.02l.01.03z" opacity=".33"/><path d="m637.46 865.29h.02l-.02-.01z" opacity=".33"/><path d="m637.55 865.23-.1-.06.03.12z" opacity=".33"/><path d="m638.91 865.88h.04l-.02-.02z" opacity=".33"/><path d="m637.44 865.86-.05.02h.06z" opacity=".33"/><path d="m638.88 867.11.02-.14-.01.16.24.27-.04-.41-.17-.1v-.01h-.26z" opacity=".33"/><path d="m640.15 867.3-.26-.29.2.25z" opacity=".33"/><path d="m641.2 867.29-1.12-.42h-.29l.7.58 3.1 1.41z" opacity=".33"/><path d="m640.12 866.58-.28-.18-.4.02.11.15z" opacity=".33"/><path d="m639.76 866.35-.5-.15.15.2z" opacity=".33"/><path d="m641.48 867 1.17.29-.4-.18z" opacity=".33"/><path d="m639.25 866.12.31.09-.18-.11z" opacity=".33"/><path d="m638.27 866.24.04-.02-.04-.02z" opacity=".33"/><path d="m638.67 866.27.05-.02-.04.06.07-.08h-.02l.02-.02z" opacity=".33"/><path d="m638.23 870.43-.25-1.83-.14.49.22 2.24z" opacity=".33"/><path d="m642.51 867.15-.03-.01.73.27.83.18z" opacity=".33"/><path d="m635.4 863.53h-.2l.51.28z" opacity=".33"/><path d="m639.19 868.01-.17-.22.2.48z" opacity=".33"/><path d="m645.45 866.98-.56-.12h-1.11z" opacity=".33"/><path d="m639.58 868.51.16.81.17.27-.31-1.06z" opacity=".33"/><path d="m640.04 870.01-.26-.51.57 1.56z" opacity=".33"/><path d="m643.47 862.95 6.9-3.17 578.45-321.03v-62.49l-572.69 378.32c.14.17.28.34.41.51l-7.28 4.03-5.8 3.83z" opacity=".33"/><path d="m626.93 858.96 7.21 3.98-2.55-1.98-10.64-7c.23-.24.46-.48.7-.71l-573.94-445.03v70.73z" opacity=".33"/><path d="m640.36 868.08-1.06-.98.57 1.1 1.89 2.04z" opacity=".33"/><path d="m638.92 866.83.01.01.01-.07-.02-.02z" opacity=".33"/><path d="m637.83 866.36.05-.04-.11-.06z" opacity=".33"/><path d="m638.96 866.68-.03-.02v.07l.02.01z" opacity=".33"/><path d="m639.57 871.92-.32-3.37.17.28-.45-1.1-.12-.17-.02.14-.05-.1.02-.1-.34-.52-.02.06-.12-.16-.05.07.12.27-.11.39.3 1.02.17-.85.07.11-.11 1.15z" opacity=".33"/><path d="m638.27 870.23.02-.1-.02-.09z" opacity=".33"/></g></g><path d="m105.77 74.48c2.31 18.32-13.09 33.72-31.41 31.41-12.48-1.57-22.56-11.65-24.13-24.13-2.31-18.32 13.09-33.72 31.41-31.41 12.48 1.57 22.56 11.65 24.13 24.13z" fill="#94b8e0"/><path d="m78 62.32 4.75 9.63 10.62 1.54-7.68 7.5 1.81 10.58-9.5-5-9.5 5 1.81-10.58-7.68-7.5 10.62-1.54z" fill="#ef56ac"/><path d="m1229.79 71.87c2.06 16.35-11.69 30.1-28.04 28.04-11.14-1.4-20.14-10.4-21.55-21.54-2.06-16.35 11.69-30.11 28.05-28.05 11.14 1.4 20.14 10.4 21.54 21.55z" fill="#94b8e0"/><path d="m1205 61.01 4.24 8.6 9.49 1.38-6.87 6.69 1.62 9.44-8.48-4.46-8.48 4.46 1.62-9.44-6.87-6.69 9.49-1.38z" fill="#ef56ac"/><path d="m105.77 1458.65c2.31 18.32-13.09 33.72-31.41 31.41-12.48-1.57-22.56-11.65-24.13-24.13-2.31-18.32 13.09-33.72 31.41-31.41 12.48 1.57 22.56 11.65 24.13 24.13z" fill="#94b8e0"/><path d="m78 1446.49 4.75 9.63 10.62 1.54-7.68 7.49 1.81 10.58-9.5-4.99-9.5 4.99 1.81-10.58-7.68-7.49 10.62-1.54z" fill="#ef56ac"/><path d="m1229.77 1458.65c2.31 18.32-13.09 33.72-31.41 31.41-12.48-1.57-22.56-11.65-24.13-24.13-2.31-18.32 13.09-33.72 31.41-31.41 12.48 1.57 22.56 11.65 24.13 24.13z" fill="#94b8e0"/><path d="m1202 1446.49 4.75 9.63 10.62 1.54-7.68 7.49 1.81 10.58-9.5-4.99-9.5 4.99 1.81-10.58-7.68-7.49 10.62-1.54z" fill="#ef56ac"/></svg>