<svg viewBox="0 0 375 1218" xmlns="http://www.w3.org/2000/svg" xmlns:xlink="http://www.w3.org/1999/xlink"><clipPath id="a"><path d="m15 1062.38v-1024c12.7 0 23-10.3 23-23h299c0 12.7 10.3 23 23 23v1024c-12.7 0-23 10.3-23 23h-299c0-12.7-10.3-23-23-23z"/></clipPath><path d="m0 0h375v1218h-375z" fill="#0a3766"/><path d="m39.92 1083.38c-.97-12.19-10.73-21.95-22.92-22.92v-1020.16c12.19-.97 21.95-10.73 22.92-22.92h295.16c.97 12.19 10.73 21.95 22.92 22.92v1020.16c-12.19.97-21.95 10.73-22.92 22.92z" fill="#e3eafc"/><path d="m333.3 19.38c1.74 11.69 11.01 20.96 22.7 22.7v1016.59c-11.69 1.74-20.96 11.01-22.7 22.7h-291.6c-1.74-11.69-11.01-20.96-22.7-22.7v-1016.59c11.69-1.74 20.96-11.01 22.7-22.7h291.59m3.7-4h-298.99c0 12.7-10.3 23-23 23v1024c12.7 0 23 10.3 23 23h299c0-12.7 10.3-23 23-23v-1024c-12.7 0-23-10.3-23-23z" fill="#94b8e0"/><g clip-path="url(#a)"><g fill="#94b8e0" opacity=".3"><path d="m187.06 627.36h.01v-.01z" opacity=".33"/><path d="m187.26 627.74.02-.01v-.04l-.03.02z" opacity=".33"/><path d="m187.11 627.44v.01z" opacity=".33"/><path d="m187.25 627.37.01-.01v-.03z" opacity=".33"/><path d="m187.26 627.56.01-.03v-.06z" opacity=".33"/><path d="m187.06 627.17v.01.02z" opacity=".33"/><path d="m187.1 627.43v.01z" opacity=".33"/><path d="m186.81 628.07.01.01.01-.01v.01l.01-.05v-.01l-.01-.02-.01.05.01-.05-.01-.01-.03.08h.01l-.01.03z" opacity=".33"/><path d="m186.91 628.01-.01-.03-.01.01.01.03z" opacity=".33"/><path d="m187.05 627.3-.02-.04v.02z" opacity=".33"/><path d="m186.87 628.37v.01-.04l-.04.04.04-.05v-.01l-.04.02v-.05l-.04.1-.01.03.02-.02v.08l.03-.09h.03v.02z" opacity=".33"/><path d="m186.97 628.23-.01-.03z" opacity=".33"/><path d="m187.06 628.22v-.01z" opacity=".33"/><path d="m186.97 628.23.01-.01v-.01z" opacity=".33"/><path d="m186.97 628.26.02.04-.01-.04z" opacity=".33"/><path d="m187.09 627.45h.01v-.01z" opacity=".33"/><path d="m187.02 628.69.01-.07h-.02z" opacity=".33"/><path d="m187.06 628.51-.02-.03-.02.06.02.06z" opacity=".33"/><path d="m187.06 628.63-.01-.01v.04z" opacity=".33"/><path d="m186.97 628.26.01-.02-.01-.01z" opacity=".33"/><path d="m186.91 627.97v.01z" opacity=".33"/><path d="m186.97 627.86v-.01z" opacity=".33"/><path d="m186.84 627.91-.02.07.01.01v.01l.01-.01v.01l.01-.1-.01.03z" opacity=".33"/><path d="m186.91 628.12v.01l.01.01z" opacity=".33"/><path d="m190.47 640.17c-.05.07-.1.13-.15.19l-1.03-4.24-1.42-4.85.76 3.85 113.67 468.27h23.85l-135.67-463.21z" opacity=".33"/><path d="m187.69 631.97-.16-1.05.49 6.58.5 4.42c-.06.03-.11.06-.17.09l34.3 461.37h18.36l-53.33-471.41z" opacity=".33"/><path d="m187.72 639.61-.57-7.65-.06 1.81.32 8.59c-.15.03-.25.03-.32.03l.12 460.99h17.6l-17.09-463.78z" opacity=".33"/><path d="m189.58 641.15c-.14.12-.27.24-.41.35l71.03 461.89h20.28l-90.89-462.24z" opacity=".33"/><path d="m185.51 631.8.66-1.91-3.53 8.6c-.11-.23-.22-.47-.32-.72l3.87-8-.78 1.37-169.86 350.35v63.58l169.96-413.26z" opacity=".33"/><path d="m186.33 642.24s-.04-.01-.06-.02l.12-1.59.28-7.79-.56 5.01-34.35 465.54h17.85l16.72-461.14z" opacity=".33"/><path d="m190.26 633-2.14-3.13.59 1.22 3.41 5.92c-.07.21-.15.42-.23.62l166.71 343.21v-54.52z" opacity=".33"/><path d="m193.4 630.72c-.01.11-.02.23-.04.34l-1.87-1.05-3.03-1.12.61.46 169.52 95.62v-33.08z" opacity=".33"/><path d="m190.1 631.07-1.47-1.44 2.09 3.07 1.96 2.36c-.03.12-.06.24-.09.36l166.01 242.95v-43.03l-168.49-204.27z" opacity=".33"/><path d="m186.98 628.34v.02l.01.03h-.01.01l-.02.02h.02v.04l.01-.02v.01l.02-.04.04-.02-.01-.02.01-.01v-.01l-.04.01h-.01z" opacity=".33"/><path d="m190.57 628.59 1.98.73 166.05 30.36v-32.65z" opacity=".33"/><path d="m193.17 632.56c-.05.3-.1.61-.15.9l165.58 162.55v-36.55z" opacity=".33"/><path d="m181.88 636.54c-.04-.13-.08-.26-.12-.4l2.21-3.25 1.57-2.75-2.28 2.78-167.71 245.98v47.99z" opacity=".33"/><path d="m182.44 630.11 2.37-1.35-3.07.57-1.08.41c0-.07-.01-.14-.01-.2l-165.09 30.63v32.21l166.88-62.26z" opacity=".33"/><path d="m186.42 628.39.2-.16.02.01.01-.03.04-.07-.07.06-.11-.04-.03.05.1.02-.21.16z" opacity=".33"/><path d="m186.21 628.98.2-.35h-.01l.06-.07-.27.07-.07.1.06-.02-.76 1.06z" opacity=".33"/><path d="m181.32 634.42c-.04-.17-.07-.33-.1-.51l2.79-2.75 1.88-2.28-.24.13-170.1 167.5v39.33z" opacity=".33"/><path d="m186.49 629-.44.84.3-.44z" opacity=".33"/><path d="m186.1 628.63h-.01l.04-.06-.38.3.06-.02-.02.02z" opacity=".33"/><path d="m186.85 627.71v.03z" opacity=".33"/><path d="m186.52 629.36.06-.25-.17.29-.22.76z" opacity=".33"/><path d="m185.5 629.1-4.52 3.46c-.04-.27-.08-.55-.12-.83l-165.31 93.74v34.51z" opacity=".33"/><path d="m186.66 628.79.03-.16-.26.65.03-.05.24-.49z" opacity=".33"/><path d="m186.86 627.89v.04l.01-.03z" opacity=".33"/><path d="m186.74 628.26.01-.01z" opacity=".33"/><path d="m187.23 626.41-.01-.37h-.05l.04.47z" opacity=".33"/><path d="m187.8 613.47s.07.02.1.04l-.2 2.66-.25 6.98.59-5.28 45.85-626.32h-23.87z" opacity=".33"/><path d="m180.93 626.09h-.81s-164.57-29.6-164.57-29.6v31.9h165.02v-.53s5.08 0 5.08 0l-.36.13.65.12.17-.09-.43-.16h1.04l-.03.04.04-.04.04.05-.09.09.07.04.05-.09-.02-.03.02.03.04-.06-.02-.03-.05.05-.04-.05h.09l-.05-.05.03-.03.04.07v-.11s0 0 0 0v-.02s0 .02 0 .02l.02-.02h-.02s0 0 0 0v-.02s0 .02 0 .02-.06-.06-.06-.06l.03-.02v-.02s0 .02 0 .02.01 0 .01 0 .01-.02.01-.02l.02.06s0 .04 0 .04v-.03s0 0 0 0v.02s0 0 0 0v.04s0-.01 0-.01v.03s0 .08 0 .08 0-.01 0-.01v-.07s0 .06 0 .06v-.03s0 .03 0 .03v.03s0 .02 0 .02.01.04.01.04 0-.01 0-.01l.09-.03-.05-.09s0-.02 0-.02v-.03s0 0 0 0v-.04s.04-.14.04-.14v.02s.01 0 .01 0 0-.01 0-.01l.02.04v-.05s0 0 0 0v.06s.01 0 .01 0 .04.05.04.05v-.09s0 0 0 0l.02-.05s0 0 0 0 .02-.03.02-.03v-.02s0 0 0 0v-.04s-.01.02-.01.02v-.02s-.01 0-.01 0 0-.01 0-.01h.01s-.05-.02-.05-.02-.02-.04-.02-.04-.01-.02-.01-.02-.01-.01-.01-.01v-.09s.02.1.02.1v-.04s.03.04.03.04v-.03s-.02-.07-.02-.07l.02-.17.03.14v-.08s.01.02.01.02v-.03s0 .06 0 .06 0 .17 0 .17v.02s0-.01 0-.01v.02s0 0 0 0 0 .02 0 .02v.02s0 0 0 0l.03.05s0 0 0 0v.02s.01-.02.01-.02l.02.03.02-.04v.02s0 0 0 0v-.03s0-.01 0-.01v-.02s0 0 0 0v-.02s.04-.05.04-.05h-.02s.07-.11.07-.11v.05s0 0 0 0v-.05s.06-.1.06-.1l-.02.11s0 .08 0 .08h-.03s0 .01 0 .01l-.03.07h.03s0-.07 0-.07v.06s0 0 0 0 0 .04 0 .04h.01s0 .01 0 .01l.03-.03v.06s-.02 0-.02 0l-.02.04v.08s.03-.06.03-.06v.04s.04-.09.04-.09.01-.08.01-.08.07-.08.07-.08v.03s0 0 0 0v.02s.06-.05.06-.05l-.02.05.18-.03-.11.19-.12-.02.02-.05-.02.05h-.03s0 0 0 0h.03s-.07.22-.07.22v-.07s-.02.09-.02.09h-.02s0 0 0 0 0 .03 0 .03 0 .05 0 .05l-.02.07v-.02s0 0 0 0 0 .01 0 .01v.03s0 0 0 0v-.03s0 .02 0 .02.01.05.01.05 0 .03 0 .03v-.05s0 0 0 0l.1-.02s.07.11.07.11l-.04.03.18.18s.05.05.05.05h-.01s.08.11.08.11l.22.14-.07-.09h.72l-.45-.25-.41.08-.05-.07.29-.11-.31-.17-.15.08-.07-.09h.21l-.16-.09-.06.07-.02-.02.05-.07s.17-.24.17-.24l.05.02.05-.05-.05.05.35.13-.35.2h1.98l-.73.13 1.09.4h2.81l-2.97-.53h3.7v-1.72s165.02-31.05 165.02-31.05v-32.22l-166.91 62.72-.73.41h-.38s-2.08.78-2.08.78l.66-.51.46-.26h-.12s3.67-2.83 3.67-2.83c.04.24.07.49.11.74l165.32-94.18v-34.53l-169.15 130.8h-.23s169.39-167.37 169.39-167.37v-39.38l-165.77 202.01c.04.18.08.37.12.56l-2.98 2.94-1.03 1.25h-.25s-.12.12-.12.12l.08-.12h-.3s-.44.77-.44.77l-.42.42v-.04s-.03.01-.03.01l.15-.39.05-.07-.04.12.62-.82h-.22s.11-.22.11-.22l-.15.22h-.06s.69-1.2.69-1.2l170.01-351.46v-63.74l-169.94 414.21-.71 2.03 3.55-8.64c.11.22.21.46.31.7l-3.97 8.18.04-.06-.12.27.08-.19-.13.26.17-.36h-.06l.15-.53-.22.53h-.05l-.26.75-.06.09.15-.83h-.03l.33-1.57-.38 1.29.02-.33-.04.4-.06.21h-.03l.07-.48.08-.31.02-.28-.02.12.08-.84-.22 1.42-.04.33.03-.12-.13.66v-.04s-.02.11-.02.11v.04s-.08.36-.08.36v-.06s-.05.14-.05.14v-.04s.03-.18.03-.18l-.04-.36.05-.48h-.06v.44s-.01-.44-.01-.44h-.04l-.03-.25-.02.25h-.06l.03-.74-.27-2.37.11 2.84.05.26-.05-.2v.2s0 0 0 0v.08s0-.08 0-.08h-.02l.05.58-.04-.11.06.52s0 .07 0 .07.01.08.01.08l-.06-.22.04.09-.04-.16.02.03-.06-.54-.73-2.1.43 1.77h-.03l.15.47-.13-.22-.07-.24h-.04l.04.1-.06-.1h-.01l.2.41v-.02s.22.48.22.48l-.07-.08.06.26-.12-.29-.03-.08.02.04-.26-.34-.19-.39h-.13s-.52-.63-.52-.63l.36.63h-.31s-2.3-3.35-2.3-3.35l-1.72-2.08c.03-.1.05-.21.08-.31l-165.97-242.35v42.97l168.62 203.79 1.3 1.28h-.24s.68.82.68.82l-.22-.12-.71-.69h-.22s.85.65.85.65l-.92-.65h-.23s-168.91-94.82-168.91-94.82v33.06l165.19 60.68c.01-.1.02-.21.03-.31l1.64.92 1.29.47h-.44s1.55.88 1.55.88l-3.08-.55zm5.92 1.73s0 0 0 0zm.22-.39v.02s0-.02 0-.02zm-.04.05v.02s-.02 0-.02 0h.02zm-.04-.11s0 .03 0 .03 0-.03 0-.03zm0-.06s0 .01 0 .01zm.31.51s0 0 0 0zm.08-.14-.04-.02.1-.07-.06.1zm-.03-.07.06-.2.1.04zm5.25-1.32.9-.17c.02.34.04.68.05.99l-3.79.7-.84-.15zm-3.94.25.29-.17-.55.43s.27-.26.27-.26zm.66.37-1.1.63-.47-.09.3-.3zm-1.28-.01.3-.17-.12.14-.22.08.04-.06zm-.2.29h.08s-.15.1-.15.1zm.13-.01-.22.27h-.07s.3-.27.3-.27zm-.49-.15-.03.14h-.03s.06-.14.06-.14zm-.08-.12.02-.03-.02.04zm0 .12.04-.05-.04.08v-.04zm-.05.34s0 0 0 0zm.01-.84-.02.42-.07.1v-.26s.08-.26.08-.26zm-.1.33v.19s-.04.08-.04.08l.04-.28zm-.08.2v.02s0-.01 0-.01zm0 .25s-.01.01-.01.01zm-.07-.01h.01s0 0 0 0zm0-.81v.49-.06s-.01-.31-.01-.31v-.12zm-.55.98-.04-.07h.06s-.13-.11-.13-.11l-.08-.12.27.21h.02s.03.04.03.04.06.1.06.1l-.11-.08-.07.03zm.28.22-.03.04-.1-.1.07-.04.05.09zm-.05-.34h.02s0 .02 0 .02h-.02s0-.02 0-.02zm.03.02v-.02s0 0 0 0v.02s0 0 0 0zm.09.19s0-.04 0-.04zm0-.08v-.13s.02.01.02.01v.13s-.02-.01-.02-.01zm.01.03h.02s0 .02 0 .02-.01-.02-.01-.02zm.03.13v-.03s0 .01 0 .01zm0-.05s0 0 0 0zm.01.11s0 0 0 0zm0-.18v-.02s.02-.01.02-.01zm.01.07v-.02s.01-.02.01-.02v.04zm-.13-1.44.09.5v-.18s.04.12.04.12l-.02.23v.09s0-.04 0-.04l-.03-.08v-.09s-.08-.54-.08-.54zm.1.9v.05s-.02-.04-.02-.04v-.05s.02.03.02.03zm-.11.11v-.07s.06.14.06.14v-.05s.02.09.02.09v-.08s.02.02.02.02v.06s-.02 0-.02 0v.02s0 .05 0 .05h.02s-.02.02-.02.02 0-.01 0-.01v.02s0 0 0 0h-.01s0 .1 0 .1l-.04-.09s0-.01 0-.01l-.03-.08.03.03-.09-.18.08.03zm-1.25-1.08.7.69.14.25.18.07.11.1-.04-.08h.03s-.09-.29-.09-.29l.15.42.02.02h-.02s.02.05.02.05.01.05.01.05l-.03-.06-.26-.15.04.07-.2-.04-.14-.2-.21-.12.18.07-.57-.84zm.23.71s.51.38.51.38l-.1-.02s0 0 0 0l-.54-.41zm.15.75.2.11-.45.17-.41-.15.67-.13z" opacity=".33"/><path d="m188.78 613.95c.12.08.23.16.34.24l-1.37 8.95-.14 1.25 96.52-632.84h-25.65l-69.69 622.41z" opacity=".33"/><path d="m187.52 625.2.97-4.03 1.26-6.43c.08.08.16.16.23.24l149.8-620.55c-.04-.95-.07-1.91-.09-2.89h-28.4l-123.72 633.21-.05.44z" opacity=".33"/><path d="m15.55 460.26v36.52l165.43 126.39c.05-.3.1-.59.15-.88z" opacity=".33"/><path d="m183.67 615.55c.05-.07.1-.13.15-.19l.98 4.04 1.5 5.1-.63-3.23-151.57-622.74c-1.71 19.43-9.36 34.09-18.54 34.09v10.47l168.12 572.46z" opacity=".33"/><path d="m188.17 624.15 1.28-3.68 1.32-4.51c.05.08.11.16.16.25l167.67-482.87v-94.6l-169.3 580.77-1.12 4.64z" opacity=".33"/><path d="m186.52 624.3.09.61-.55-7.36-.43-3.76s.09-.05.14-.08l-46.59-622.16h-24.62l71.96 632.76z" opacity=".33"/><path d="m184.57 614.57c.13-.12.26-.23.39-.33l-96.1-622.69h-27.21l122.92 623.03z" opacity=".33"/><path d="m186.4 615.74.59 7.99.06-1.62-.31-8.75c.14-.03.24-.03.3-.03l-.49-621.78h-23.49l23.33 624.19z" opacity=".33"/><path d="m187.07 624.74.08 1.09.04-.35-.05-1.59z" opacity=".33"/><path d="m186.66 625.54-.02-.28-.02-.08z" opacity=".33"/><path d="m182.7 617.11c.09-.18.19-.36.29-.54l2.76 7.91.45 1.1-1.29-4.41-169.36-484.45v75.71l167.15 404.69z" opacity=".33"/><path d="m186.02 631.42-1.23 3.52-1.41 4.83c-.06-.09-.12-.18-.18-.27l-152.58 438.35c2.41 7.1 3.84 15.94 3.84 25.53h13.83l136.65-467.51 1.07-4.45z" opacity=".33"/><path d="m187.25 627.88v.04s-.02-.07-.02-.07h.01v-.04s-.01.02-.01.02v-.06s0 0 0 0h.01s0 .01 0 .01l.03.03-.02-.05s0-.03 0-.03v.02s-.01-.01-.01-.01h-.01s0-.02 0-.02 0-.03 0-.03v-.03s.01 0 .01 0v-.02s0 0 0 0v-.02s-.03-.04-.03-.04l.02.06-.03-.09s0 0 0 0l.05.07.03-.15v-.02s-.08.08-.08.08l-.03.04s0 0 0 0-.01-.04-.01-.04v.04s-.03-.07-.03-.07v.05s-.02 0-.02 0v.09s0 0 0 0v.05s0-.05 0-.05l-.02.02v.04s.01.03.01.03 0-.02 0-.02v.03s0 .01 0 .01-.01.03-.01.03 0 .02 0 .02 0 .02 0 .02 0 .05 0 .05h-.01s0 0 0 0h.02l-.03.04v-.02s-.01.01-.01.01-.01.02-.01.02v-.06s-.03.08-.03.08 0 .03 0 .03 0 .01 0 .01 0 .03 0 .03-.02.05-.02.05 0 .02 0 .02 0 .01 0 .01l.03.05v-.03s.02.05.02.05.02.02.02.02.01 0 .01 0h.01s0-.01 0-.01.03-.28.03-.28 0-.04 0-.04-.01 0-.01 0h.02v-.05s.01.08.01.08v.03s0-.03 0-.03.15-.03.15-.03v.13s0 0 0 0v.02s.01.04.01.04v.02s0 0 0 0 0 .01 0 .01 0 .02 0 .02l.03.17v.02s-.09-.08-.09-.08v.06s-.01-.01-.01-.01 0 .02 0 .02v.03s-.01-.02-.01-.02v.03s0-.04 0-.04-.02-.06-.02-.06l.02-.02h-.01s-.01 0-.01 0v-.03s-.01 0-.01 0l-.04.03v.02s0 .01 0 .01v.03s0 .01 0 .01l.02.02s0 0 0 0l.02-.04-.02.05.03.02h-.01s.02.03.02.03 0-.03 0-.03v.03s.02-.02.02-.02 0 .02 0 .02h.02s0 .04 0 .04h.04l-.02-.05h.03s0 0 0 0h.04s.03 0 .03 0v.02s.01 0 .01 0v-.02s.02.01.02.01v-.04s-.01-.01-.01-.01v-.06s0 .01 0 .01v-.05s0 0 0 0l.04.09s0 0 0 0 .07.1.07.1.03-.01.03-.01l-.04-.1h-.01s0-.01 0-.01h.01s-.04-.12-.04-.12l-.02-.07s0 0 0 0h-.01s0 0 0 0l-.02-.04v.02s-.01 0-.01 0l-.03-.03v-.04s.04.02.04.02v.04s0 0 0 0v-.03s0 0 0 0v-.04s0 .04 0 .04v-.1s0 0 0 0v-.03s-.02.05-.02.05v-.02zm-.31.1s0 0 0 0zm.07-.05s0-.01 0-.01zm.07-.09s0 0 0 0zm.03.39v-.02s0-.02 0-.02v.03s0 0 0 0zm0 .02s0 0 0 0zm.01.07v-.07s0 0 0 0v.07s0 0 0 0zm.07-.01v-.03s.03.03.03.03zm.08-.11v.06s-.01-.09-.01-.09v.03zm-.02-.22s0-.02 0-.02z" opacity=".33"/><path d="m187.17 627.46.01.03z" opacity=".33"/><path d="m191.43 638.64c-.08.16-.17.32-.25.47l-2.51-7.19-.62-1.51 1.23 4.19 154.4 442.83c3.46-9.94 8.86-16.33 14.93-16.33v-16.81l-167.16-405.65z" opacity=".33"/><path d="m133.4 1103.38 51.96-461.62c-.12-.08-.24-.16-.36-.25l1.48-9.69.1-.88.06-.3-.02.28.12-.79.04-.22v.03s.01-.37.01-.37l.08-.26.04-.25v.11s.03-.08.03-.08v-.14s.02-.2.02-.2l-.04.11v-.14s-.02.06-.02.06v.13s-.1.52-.1.52v-.25s-.02.1-.02.1l.07-.62-.02.03v-.06s0 0 0 0v-.03s-.04.12-.04.12l.03-.08-.04.13.02-.02-.06.64-.14.41-.27 1.4.38-1.29v.1s.06-.29.06-.29l-.08.52-.04.3v-.07s-.94 3.95-.94 3.95l-1.29 6.58c-.08-.08-.17-.17-.25-.25l-112.01 462.65h21.82l92.53-471.98-72.23 471.98h19.15z" opacity=".33"/><path d="m186.87 627.32h-.01l.01.02z" opacity=".33"/><path d="m186.87 627.36-.03-.05v.09z" opacity=".33"/><path d="m187.26 627.86h.01v-.02z" opacity=".33"/><path d="m186.83 627.84-.01.02h.02z" opacity=".33"/><path d="m187.25 628.81.01-.12-.01.13.08.2-.02-.31-.05-.08v-.01h-.07z" opacity=".33"/><path d="m187.62 628.94-.07-.21.05.19z" opacity=".33"/><path d="m187.92 628.94-.32-.32h-.09l.21.44.9 1.09z" opacity=".33"/><path d="m187.61 628.39-.08-.14-.12.02.04.12z" opacity=".33"/><path d="m187.51 628.22-.15-.11.05.14z" opacity=".33"/><path d="m188.01 628.72.34.22-.12-.14z" opacity=".33"/><path d="m187.36 628.04.09.07-.05-.09z" opacity=".33"/><path d="m187.07 628.13.02-.01-.02-.01z" opacity=".33"/><path d="m187.19 628.16.01-.02-.01.05.02-.07v.01l.01-.02z" opacity=".33"/><path d="m187.06 631.36-.07-1.42-.04.38.06 1.73z" opacity=".33"/><path d="m188.31 628.83h-.01l.21.2.24.14z" opacity=".33"/><path d="m186.24 626.05h-.06l.15.22z" opacity=".33"/><path d="m187.29 627.92v-.01z" opacity=".33"/><path d="m187.34 629.49-.05-.16.06.36z" opacity=".33"/><path d="m189.16 628.7-.16-.09h-.33z" opacity=".33"/><path d="m187.46 629.88.04.62.05.21-.09-.82z" opacity=".33"/><path d="m187.59 631.03-.08-.39.17 1.2z" opacity=".33"/><path d="m188.58 625.6 2.01-2.44 168.01-247.01v-48.08l-166.33 291.08c.04.13.08.26.12.39l-2.11 3.1-1.68 2.95z" opacity=".33"/><path d="m183.78 622.53 2.09 3.06-.74-1.52-3.09-5.39c.07-.19.13-.37.2-.55l-166.69-342.41v54.42z" opacity=".33"/><path d="m187.68 629.55-.31-.75.17.84.55 1.57z" opacity=".33"/><path d="m187.26 628.58.01.01v-.05l-.01-.01z" opacity=".33"/><path d="m186.95 628.22.01-.03-.03-.04z" opacity=".33"/><path d="m187.27 628.47v-.01l-.01.05.01.01z" opacity=".33"/><path d="m187.45 632.5-.09-2.59.05.21-.13-.84-.04-.13v.1l-.02-.07.01-.08-.1-.4-.01.05-.03-.13-.02.06.04.21-.03.3.09.78.04-.66.02.09-.03.89z" opacity=".33"/><path d="m187.07 631.2.01-.07-.01-.07z" opacity=".33"/></g></g><path d="m31.31 22.45c.67 5.35-3.83 9.86-9.18 9.18-3.65-.46-6.6-3.41-7.06-7.05-.68-5.36 3.83-9.86 9.18-9.18 3.65.46 6.59 3.41 7.05 7.06z" fill="#94b8e0"/><path d="m23.19 18.9 1.39 2.81 3.1.46-2.25 2.19.53 3.09-2.77-1.46-2.78 1.46.53-3.09-2.25-2.19 3.11-.46z" fill="#ef56ac"/><path d="m359.94 21.69c.6 4.78-3.42 8.8-8.2 8.2-3.26-.41-5.89-3.04-6.3-6.3-.6-4.78 3.42-8.8 8.2-8.2 3.26.41 5.89 3.04 6.3 6.3z" fill="#94b8e0"/><path d="m352.69 18.52 1.24 2.51 2.77.4-2 1.96.47 2.76-2.48-1.3-2.48 1.3.47-2.76-2-1.96 2.77-.4z" fill="#ef56ac"/><path d="m31.31 1076.13c.67 5.35-3.83 9.86-9.18 9.18-3.65-.46-6.6-3.41-7.06-7.05-.68-5.36 3.83-9.86 9.18-9.18 3.65.46 6.59 3.41 7.05 7.06z" fill="#94b8e0"/><path d="m23.19 1072.58 1.39 2.81 3.1.45-2.25 2.19.53 3.1-2.77-1.46-2.78 1.46.53-3.1-2.25-2.19 3.11-.45z" fill="#ef56ac"/><path d="m359.93 1076.13c.67 5.35-3.83 9.86-9.18 9.18-3.65-.46-6.6-3.41-7.06-7.05-.68-5.36 3.83-9.86 9.18-9.18 3.65.46 6.59 3.41 7.05 7.06z" fill="#94b8e0"/><path d="m351.81 1072.58 1.39 2.81 3.11.45-2.25 2.19.53 3.1-2.78-1.46-2.77 1.46.53-3.1-2.25-2.19 3.1-.45z" fill="#ef56ac"/></svg>